<mxfile host="app.diagrams.net" modified="2020-06-12T05:18:01.434Z" agent="5.0 (Windows NT 10.0; Win64; x64) AppleWebKit/537.36 (KHTML, like Gecko) Chrome/83.0.4103.97 Safari/537.36" etag="aWQMXTuMB8wvNUPpRO05" version="13.2.3" type="github">
  <diagram id="xgOr8ZOShUOxrDPgACbX" name="Page-1">
    <mxGraphModel dx="2062" dy="1155" grid="1" gridSize="10" guides="1" tooltips="1" connect="1" arrows="1" fold="1" page="1" pageScale="1" pageWidth="850" pageHeight="1100" math="0" shadow="0">
      <root>
        <mxCell id="0" />
        <mxCell id="1" parent="0" />
        <mxCell id="MC8lnm2CJXITioSH9_ZT-1" style="edgeStyle=orthogonalEdgeStyle;rounded=0;orthogonalLoop=1;jettySize=auto;html=1;" edge="1" parent="1" source="MC8lnm2CJXITioSH9_ZT-2" target="MC8lnm2CJXITioSH9_ZT-8">
          <mxGeometry relative="1" as="geometry" />
        </mxCell>
        <mxCell id="MC8lnm2CJXITioSH9_ZT-2" value="" style="shape=image;verticalLabelPosition=bottom;labelBackgroundColor=#ffffff;verticalAlign=top;aspect=fixed;imageAspect=0;image=data:image/jpeg,/9j/4AAQSkZJRgABAQAAAQABAAD/2wCEAAkGBxMTEhUTExMVFRUXGRoaGBgYGB0dHhoXHRgYFhYaGxsYICggGxolGxsYITIhJSkrLjAuGB8zOzMsOCgtLisBCgoKDg0OGxAQGi0lHyUtLS0tLS0tLS0tLS0tLS0tLS0tLS0tLS0tLS0tLS0tLS0tLS0rLS0tLS0tLS0tLS0tLf/AABEIAMEBBQMBIgACEQEDEQH/xAAcAAEAAgMBAQEAAAAAAAAAAAAABQYDBAcCAQj/xABAEAACAQIEAwYCCQMDAwQDAAABAgMAEQQSITEFIkEGEzJRYXFCgQcUIzNSkaGx8GJywUNT4STR8YKSorIVFnP/xAAXAQEBAQEAAAAAAAAAAAAAAAAAAQID/8QAIxEBAQACAgICAgMBAAAAAAAAAAECESExElEDQXHwYZGhMv/aAAwDAQACEQMRAD8A7jSlKBSlKBSlKBSvLsACSQANST0FU3jP0gwqGGFAnIveS9ol8+bd978un9QqWydrJtcZ5lRSzsFUC5ZiAAPMk6AVz3tl9JyYdP8ApY+9JNu8cMIx7bF7+lh1ua572k7cNK13fv2GoHhiQ/0IN/c3P9VUziHEpJjeRifIdB7Csy29LZI63i/pqvAO6w1pz4s7XjXyK25n9jl9zWxguFY7HqskzNJcaFjkjF9bKi2B8r2J01NcRBrovZD6V8ThYkgkiXEIoCpzFHAGgXMAwYAWA0v6mmWPl9kul3PY+eDnjurDUNC5uD6jTMPQgg+VZ+y/0kxvKcLiyscytkWQaJIb2F/9tvQ6X6i9qqnHfpjxRXJFhVw7HZ3Jc281Uqov75h6VSOGTMmIjxEoDh2Ziza5ma5JP9RJJ1871McPG8UuW+36cwWOjlBMbhwCVJHmK2K5fgfpAhhGIlIFswKxLYG3KrC/4tNPn56XTsr2jTGo0iLlUMQLsCT05gPCfTXca10ROUpSiFKUoFKUoFKUoFKUoFKUoFKUoFKUoFKUoFKUoFKVUu0P0g4PDP3IkEs17ZFIsp8pH2T21Ou1BbaqXaLtzFArCBPrMgvojAID5Fzodeign2rnXbHtNNij3Mk7QBtVVAVjJ6KxP3nqCbegqt4jFMSsc7GCUH7OVScjH9vkf02rjfl3/wAukw9pziPaibHIxc94y74a+RF9MhvnI6F7+ltqhMMTdnwhsR95hpNPewOx/T9qx4sXYLiPsZh93Onhb38vY/pWxLhmKlsTlikj8OIRgM3lpv8AI/K1ct/f7+/63pGz8NixFzB9nMPHC2mvXL/Le1V+aFkJVgVYbg6Wq38OxE83MIo8w0GIZbXXoVW1ySPW3tUrhuFxo3eOTJKfjff/ANI2Ue3512xtnbnZL0qfCuzc0ti32aebDU+y7/narbw7hcOH8I5vxHVv+B6C1bqTa2OlYnFLlskMZAky5JFDDf1B2up3B9RUFxQSQRkd2s8YtzEAZQBZe8QLsN8y5dd7dZxd62EWw9aSligcM4e7sJnU5DYkLckqTa4Vdx/Tv5A2roMPaTB4NXiwWIzO3dvGwBP2hXLKDdbAaA69NLG1V/ivZ7MGbDt3bN4kGiN52t4CfyPW29QOH4UMjZnySJ4lblEeul8wJZTrzA223vW5dsu/9ke0MkzOuIKq4ClQq2UqRcMOYnXXQnpVsr8tJ2uxCMVRlHKIyRzXUXFw2lwbnXytXUPo+4jkkDuSweIZSWuQqkixJOoFhby1FaHVaVFcM7RYXEMFhmV2IvYX0ANiG/C39J1qVohSlKBSlKBSlKBSlKBSlKBSlKBSlKBXw1EdoO02GwYHfSWZvDGozSP/AGoNSPXYdSK5X2u7dcSxAKYaM4WI9Qy96w9WBsnsuo/FWblJ2slqP+kvtjxB3eMMYYASMsRIJ6ESP4vMWFl1sQa5fmqwxcUeM93ig3o5FyP7vxj1Gv8AdtWPiPBgwzwkai9gdCP6T/PlWJlrv+2rPTFw3jxC91OvexHodSvsf56EVOL93p/1WFO67yR/5NvLQiqU0ZBIIII3BrYwGOkgfNG1j1HQjyI60y+OXmLMtdrZFKJYjBhkaSPYyTE5Vv0UbkjoANNK3MBwWOPKXYysu2fUL/ahuB87/KtHhXaMMcrIAGNxkGqsfF/dc+evrVhW3i0IOx8/+fekmjewyMTbwivViDYm49TqK+SyXsK+xIPPWoPeS3qK9R+W48qxnMLadbH286yrboR62oPs0mVSQL2rWjlL7kD0/mtZ5UbobelakkWt15X8uh9j50GdlK6j8v5vWHH4CLELlkXmGgYaMvsfL0OlY0Da6W/Ex/51H5VlFjtr13tf2oKvPwhcKp7xO9udJLcttgluaxJ3PKfwsa12xOJQ5ImlVIwVJYBSCRdwNm1/DcmrrnBBBF1OhBF9OoI2IrR4lg3Ld9ESW6ppz6ZRe5AcAfCbX3udq3MmbGfsZxuHDdxMJDGWLrJe9mUBQpA2azXuRrrXSuzn0iQ4ycQRRtmu12JAGUWsy9Te+oNretcJHBGlbvJnyNKHKCwBupAAYjlUAbqbN0AN71KdnuLxYQQyOrrIJb3FyGiysrBXW6sLldj+laR+lqVyLs19Is8+KRGOXDs5ykqMxFjlVybgL6jUa6mutRSBhdSCPMVUe6UpQKUpQKUpQKUpQKUpQKUpQcZ4RwZ5OKz/AFtwrTsxikOzgMfs0J0D5bWU9EO9q6MnY3Bgaxlj5l2v+hA/Ss3Gez0U6FCilTupAt56eRv/AAVyHth2d4hhszYfE4t4RvH38pKD+3NZl/X33rlMZLzG9+nv6Y+D4bDoiQEs+a7p4u7W2hLfDckABtT8q57wLvkJZMoivz94bKWtey2uxkt+AE7X0q8jhg//AAsQdz3j4iSwH9QbMGP4tA35e9QPDMD3ULTA5UV8ocs33oTMcpQkroRzKoIsQc1iK1qThHniGDil2JNhuBqPfzX129tqjsF2bZixZhlHRSCzegB2Pv8ArUpgTDKEySFDCb95ziTncqoYm6asQt1Vr9YxrbwOJKqSwuObNmztlQsoBzKVV8qmzLyC5OUWAOlYuOUnFWWW8tTETRxsFzWJGW5GoA0CzBND/enMNLg1uYDHSxnW2W2i3zBl6MDrmX1BrLHgEigWZEcF75WWxY5cpIGYaCzKdNbMN6iwkpOZ0SONjojErmbqyEDkY/iAAPUGszL21r0teGxKSeE+69fl5itpANxf2vVKDmMFkzHIebTmTyzjy/rF1PodKnuHcXvZZQFJFw3n7jc+4/WtIl2Yt4TY+R6/pRoNQb5W622/WvoP5nqOo+X715bXRtPI/wA6UGVJh1097C9fZoA4109a1SD4X1HRhWxCrDTdehqjSJdGAfUdHG49COorazXA0B9RqP8Ag+lbLqCLGvIQKpOiqurMxAA/uZtBQYlhvv8Arv8A8VmbKiZ2Kog0zMbD2v1PoLmoDHdq41OTDr3znQMQQl/QGxf52HoareIxxllJxkkmZdlsPmgF1CDbawppExxnjUcrKsIlkN9MvLmbrovPawHVTp5WAxQ8MZnkeeK7BFKqSWYjMw5VuENifCWHpcm9aXDcwWSWCKU3XQHZUvzq3+7cDZdt73FbOGwkrqodhhYBqqgm9jqTzNfY7sQPK+1N3ZqaWM8QjwOCljUB3aWJ431FlV+8UDMOZgQAcpNutqzYDtXPiHlnF44woZoFkaxCm9ybasWboF2361z1e4hnJyCaLoM1vQXIFiR+Ei1SXFuJwID9Vd7OLPygCwtY2Ma5GNgxycupFdIy/SXD+0EDIueRUcoGszAEjYkX31qWikDAMpBBFwR1FfmvsXxExys2IjMtkLZZPw5GyG7a5b6+RsK6R2U+kXDxQwxYiQvIQqlkBbmCAlmt5nQ2vY3v1NVHTqVq8MxyzxiRAQDfQ2vvboTW1QKUpQKUpQKUpQKUpQKge2sxiwskyxd66ZbLmykguqtrY9CTap6obthAXwcqqCTYGw30YE/KwpRy3GYJOIQvJgpzDJcGSIgAhweXvF1KHcCRehO4JFYOF4Mw8P8AqhT7V8QGm81RlCLKhOjKCFVj662vUPiMwnDROYpMukigXGhPzU2FwdCKnU4hHj0+qY+NY5fhddEc7XRr8jH8J0PrsM60qF7PYcfVp8RFzJDIFKhNGVgviC2BUA6gnXOb3sDXnEPHMZIYxIYGvmJjzAWJKCJ5GDhjoAuR9TZdKmMTw8cPwTwyAlFmE6SrsxXKHikAGl1U5TtmyjyqD7PqskONxd+7VHQREGxzkSZ9h/tso6dPKnYiuJymJV7qOTuwCQcwcKoyh83KSCLeESHKemthtYzFLKiLBMwDKCSbElszKdASR00ve5O4tW3Lji+IcWyE2BeNlLSXsoORkIYDfMRmAGrEHLVW4w00MkbFEVFLNDks8bAtzOrksJLlRe58hYbVm4yrMrG7i8BFhdSbNa+a7CQHrlGwHQg731vWozPJGGsYugNgEYdLH/TJHS+Q9Cu1SHD+LjFYkCYKCTctIVI0XfYeWgAJtbesnE4pJJSsASzXBkJ3XYaHYEeQPyrnd49t8VhwfFfq3ISSoOquTmzdeX4D6+29WXBYpZVDre3kwsR8vL1GlVKfDrCqZ3JyaKWUBhY/6V/Gn9DaeRWvC4iUurRMoDHSXMSL9VsdUa3wEXt5jWrOtwvqr5FsQdQazoNLAbD8h5noB61Wk7QhVRmsw5gwCspLcpVh+FbZ7je403008fxT6zeNpUSMEEg8oA65U+I+5Leta/lElxLtZFHywr38np92D6sNXPoth/VVYfFyYyQfWZrBTpGAQB5iNF+L9T5mseHAw7O3KQDpyEvvykA6Rn+8j2atqSeN4yxmKvLm0jALXUXtK5sWB2suVfQ2pajzArQmRoi7KuhCKCQOmdtVQj0u3mBX0iGWHO4kZ9c2UWEf4WJNy9zZbsfkK1IOIsIsvfECPRFUgXzAgqQNSoA67X31ArBFjpFV1VyFkADhdMwF7Ane2p0631vV8dm21hMVD3MiSSSFkF4FGoLkEG99ktv76VGS4yR1CsbKOguPz1100r6y+VS3AuAjE6LOisBcoVOb5C4uNtR56266kkZtQyWArJh5WR1dDZlIIuAdfY6VKcc7Oy4e5POg+MDb+4fCPXUeta8OHSKzYmOXUAolsucbXYnmVfYa9DWkbPEOPd7GqdwgksQX6ksbsVAAIJJvqWHpUr2NhGHxMLYkWXOAc7LZbMpKtr9mbMpIex19aqJkUe9Sc+LxaRRszHu3VlQnK5y7MmZgSu3huNqDqnCPpEXDZogDI/eMcg1GUu7EX6FR+XXauk9lOPfW42cqEIYjKDcgdL+tfnjA8BkVVlR0lGYZyjR6g2L5ZGbMxU5QQwGrC19aksN20ljWZILh5JL99cXHMCpAF+g9dNKK/SNKoP0f9qpZjKMVJzBVa5UKoBB1BGwtYm/vV+ohSlKBSlKBSlKBSlKCldruxsMjGeNWE1jZVZVV28yCN9TsRfr51yzjODIlEUyEfCysLaHT/O9d84h8PvWj2l4PFOnOkZcAhHZAxQkbrfXfXQjas7VyPhfH3w32M577DMNGbWRPMMAPtFtYefvoBJfURHhXOBVMRhZQS0QIvfo0Tbq4NtD5WrQ7S9nMTA8d42YXuHjUsp1B3A5T6G3z3qMixTYWTvYDlDH7SP8A05NNyvwt/ULbDfYrNjU7FYSTEz4lpIgB3LrYqPs2LILqHuVK/wDataeFpJEhlLuCBlRWNjlDM2Y6kkc2Uiw9Re9XnA4uDG3MTfVsYgIZWGuu4YD7yI+YI3HhNQfY7hk0HEw2NZVVVkUADllBjKqq6W8rXsbrbem/YofHeC9xldZAUOo1AdDmYAMASLgqRmUkXHTQVl7Occ7l2MuZwwYBmYnKxIbMbc5Nx0PvoTVmTg8iYnDsi3M2eMK/K8TRBy40vlcBbm25NtL3qK4vwqKZgMNHlkWyvcqEZs0g8OVechVPICp5rgWuXZ0y8L4bDiS8+rhVuQbsF6DMoBI1sNeXUeYqNxGId2KxJcro8jqFUr0V12y+V9fK1RqYifDF4zdT1RtQD0YWNj7i4PrpVp4RxBJMMxzAS5gCtrqoIsL3I6g9DfN0tXLLG48x0mW+EWzdypYm13DDMWkQsqSKMrAa6uPEQRbW+9R8OBbL35nVJHzFMt9TbmF00Q629NNql34UijvMZNmBOiKbC2tgfLT4V69ajp+NxsJUihADqqIdRkCliCqi/Mbjcnb1rU56ZtbOExcgw0nNGqx6MAAO8LhtCT4mFr33NxfzqM4RiO8ZojZBICM2RnKgA2siak3I1sbfrXrDcHCL3k+Zb3sANTp1qw8KxEOFiL5A6XXNZgXDkFgjsMobY3y2ZbC4N81ak0m2jP2ciwuFSbEvaSUkLGN1+Q1uAQT01ta+tVstY6G/kfMVOYiOfHSMyoQrHS5LADoodrm1xstS3G8LDgsHEscJeR795My8h11yt18gBta51rSKopvX1XZWBBKsDcEGxB8wR1r7gsBJIC6I2XXWxtpra/X5fO1aruf+TRF74J2u7zLDOFLG4El8o26ixAv1tofKq92k4jGzuqIrqthHIpsQLC4O+eO+bKvw3sDYWqMweBaRXcEKiAku+ikixyBurkbCt/BcFkdQ7FY1YXUsGJYbZlRAWy3+IgL60H2fBYV8NEY5CZ9cyhGLOzHRSLm1hYBhvc6Xqa4Tw/ENGMNLMFUK2WASKsjtfMsN2uEubnK2uh5fLNh8OISrYQRNzKIpWyuZGOhDlkPdN07oCNt7MxrOcBDnKSQhDCpeTDsSoCmwEkUkpVWizlQVksV1sTa1UakmDzI8SxOsagl+6Z7xkWJDxSSHvSLKSGCNpcW0ByYXgGHMIKTKJSpdJHY5GAIUaWACl7qVtnXc7ZTrY7jaopUP9YkzeMvJywDwRPLE0ZnINjfVRrYm+kJicYZCrSG2UWUKAqot7gIqgBRcn3660E7je0M8cjxpkQsoRrNfTLbQ6aEa7Xt5bV0T6PcW2HliWR86vGe7BYlljBtlN7WS4BAGmnSuT8M4moz5kLoNWOW9huBf4AWAGbcHYipHh2HlxRLPLJHFl5WYqM1iARyqucBm1axttfSg/R3DO0mFnCd3Ml3JAQkBgwAJUruGFx+Yte4qWrhOClihhw2IViHE4DZWFu6EZJObqT538/l0jh/0g4ORxEsheQkDkUkG+5BtsOvvpegt1KUoFKUoFKUoNbHKSBYX1r5jhyD3FbVYsVGWUgb1LFa+LUGKx2IAPsRY7a1zXtR9HkuVWwzB1J1DsAy/PQMPyPvvXTsSloiPICvEv3J9v81B+f8AioHK40dGBVwbEb+FhqPlUmOPCRBBj7KG0TEgWU3+GUD7tv6gQLi/L16F2l7Cw4mPPGwgkvckLmVtTclARrvqCN9b1zLjcLRh0YEFTYgrlNr2By3NgeliR5E1eL2JHhXZyTBY6PGStJiIkLMTmLsudWBfm1bcNprvvUFxq8mKhSOZDPNKAzwn/dk8VkOgyMrW9L1t8I4tPhAHj+3gYAvCx5kvu0THS3XIdPK17iXj4fh2lXH4LIHU862PI+92TdW1N7b3uL3vU6FZ7Wqzu8MwC5WCrK4Ud2FANlsAzM4AFne2p23FWxvCpsOe9QkqpUd4pW6Oy3ysFZsjbjU2Pmb1ce2nGoyGwywkvJmYstjd3yMNb3IBWwvqAzDrX36Q8OcJL3ETssWVbi5dkXIwy85F75m3O1vKqKB3cuIkJsXe19AAABvooAUflW5w/iKIoCKEc7uwvYeg/wDH+ak8PgkjZZYXcixsLhS6qo7xlJJFwTfI4F7jS2tQOOwth3kdmiNuZdlJGzA3MZ9CT6FqRG7M65j3jZ79SdfbTVflX3CcaEbKSgkyWCZ9ci6Xyr4VNxe9r6VoYDBmU2zBRt1OvQWG5O1WA9mfgCNy3L2Uh9jbx829hYD5Gl54WLInFTkWRb82oJNrfkdTVbj4PJjJ2Ms10B8TEXsdTlXYa6X0F/MmpDggRYsjM8sdyAwBBQkEZJI1BeOTyBuGNsrHat/us8qrHEy2OVkQHMxICgysmmGIGuct3liQVN7Vw+H47hvddPkzmX01e12MijwceGjkCZAMqILseYkiQ6ZfxaXzFjrpVY4Hgu8Uu8IIUj7WV2EfN4QUUZpWuDZUNz1BtUxhOHwRkyyd4UYMFnaMNFHITZXKNZ5ACCMzKLnXLpUhNDMknePOgXIWUTPnin//AJuzW12GUKy+Vt+7k1o0PK0f28i3BLIFKr0XCxKTGosLm3PvYCtpSZDD3ilBKe5ilyBm12VoyPtIr3BPTXUa1pYyeBIyrlkeS8hSQNJPE5IJAa4GY2DKz5WAa5zG1ROP4xJI5ZSVuMuYBRI66A95Iiqzk2F76VJFTmI4jBA5yZCAhjeGO7JMQLXl7xFVAHzEEZ2sQL2FzXsfxCR1ynKqEhikYChm83I5nb+4m3S1ayR6efpXvp5jy8vyqow4jiL9x3OhXMGBtYgi/UbjU6G/Ss/DeGuQmIIjkhUgyjOoKgHUOrWNyL2sDfpfasU2G0uNRWoI7HaqLTLGmEn7/CSRt3ga0ZzHIG8gpysttAH+Ya1x44Nx2SAhXLSQa3jBAtcMDlPw2zE5QQKjuFYCWWRY1GVmBK5uXMALnKWsCbXO/SrTP2dgCWUtK7EC5bKFUXu4yg7kqMjXva4PWnAipY2xIyYZBFCSWbQKveLfJyKzd2SHC6HnOtuXTPwP6tDF3skmXEJLGUjtfMocd4SRoVsDsdelaxwMUbKY8QUmT4spK5tjzAXUbjS9afFsdMzBJFVF1YDxXza5ldrkjysbbDpUV17s59K8femOc/YnwyW5l876ksv/AMv7unUsLiUkRZI2V0YXVlNwR6EV+WcNwkuFucg6XHNr59KufZWTF4Js2HnzqdWhluUf2sbo3TMB5XuBasX5MY14Xt3ilV/sv2sgxiMReOSMhZYnIujHax2ZTY2Yb+h0pW9xnSwUpSqhSlKDzIlwQetYZ47RkDyrYpQaaawn2NRvEuAwYuDJOl7XysDZl2OjDW22mxttU00YCkAdDWDBqchuLb/tUVxHtHwOTDK4MZENyI3vcFb3QFuj2tcEC5va4qDw0LIFngcxTAG53VwCeWRNmFv5sR+g8BGrxsrKGU6EEAgj1B3qgdqOxsjB5cMqlbC8KKFK2FuQLow0vbe5O96SirYTFYbGEK4WLFAcqjZtblomtfptuLdQL1EdsGxM0mSSFCzBVMzNbw6KxGmVraE63/SjcLJjyTxOhuSudWRxtZlzAEag6+lbPD+0mVVTGB5IvD39szIegkA8QtbmGunxdM2a5g3uKcCZ/qseH7syfVYmaEGySSoArgaZSSCDzHdbnrVdxOBAUTSGTCyDMj500IBGkge3eoRsFB8tbCpftJg8QIkOGcNETmVlI8JBXkcdLMdL9dNakeKskeEwpXK8KRlWJPMJGUGTN1zFhcetqS7KoOC4v3BSX6t3SyAXZkuNjpExs2Qgg5bk7akAWzYjtFiMQ+XDRsDY6qCz5dLkAXCD139a38NhmfDzTSRCVXdljNhmZkXqRzKdQLi2gIFuuthpo+7Kd20cKMfvD9m7MxKrM4W3ersrEMthqF8VaR5w/B2gLSSmfvAiu6xs0dkfmyvLlLMW2IVSBY3YEWqWkgEoDwyPGgZSNAhwqE6BogAFjv8A66E3Hi2JORcMIUiR2LxFs0nekp9WuRZ4pQoVW35EJD6WFrmoDiPaQGTvIsxkCsiyMqplRrg5UiAuxBPM5Nr6KLCwWGQBy8jxiWSOximSPOMQCVDEw3UMyi2aVCF0tc6A7icJlhgtECCz94yd6YgrEEC4hPKuv3aHexLtYVA8K48sp+0BvZR3ebxtaxlzv9423LK11GqsdVrc4nPnCyLiWQC+RUOdWAOVzZbZreG+YIt9HJ0qXaq9jeGFM8qqQqkCaOXUx5jfMrjSQdQRZ/MEXJ1JsJoGjJZTtte+W7baX0LZdSoIza3q043GERhoiGRV5rJleNv9Q5LkJHtqn/qJOtRb8MdX5FEbMhfKxBWRV5j3iA3jBsDc8p5Qd6uxCLKOuh/m9fe+G+xH60kmWVlCK3eNpbfXpqPEx1JICgXAtpUlH2VmADyLn80U6j30/agjMMsk7BIkJudwDbSxYm1ybA3PW1WXh/ZKQJmLoZLgjS4Fr2sx6HfboKs+AwyqiAJlsq8t72yiy+7AaX3reQ1NrpqRQEoFksWsbst11IsSpBupsTqDeouDCnCqQCXhBPNqWT0ZfwjzUadR1qwtGDobG+9R/C+Ddw8pWQiNrZY7BspvdzmbUegFQU6bhcmndrnv8QIsR0N6mmwC/V0SZS4BsWAJCM1z4hsBt8tulSOJ7OZpFMDlJL51hUgCTUZzlJGXTraxPqb1DxGaVXw6kIiyNmRQoAlBKsWt6g/qavYuf0XdosNHPKs00UTZQoZ2VAxzfCWO5FtL10DjHaTh2UpLPDIbXEaMJHPkVRLt8+nmK4YnZB5ZQq5O7UAGVTfvPM7AX6aA7dd66T2S7EqijIoA6uRv7X1asXL6xi6+689lOAhnxE7RuO9cFU0JSMZhGGsbZrb2J1vvSujYHBLEuVfmTuTSpPi45Lm2aUpXZgpSlApSlAoaUoNLhuHZA1/l+tOHfF/POt2tfD4bKWPn+2v/AHqaVWePdlUxhZgxSUaBtwQCbBh5anUa++1cvxvAZsGSk4S7X0VswIGhvpsfX1ruOD8b+5/cVo43hUOIZkmQMNbE7qdNVbdT7VIOCcMxc+HL/V0DxZiZICTZrk6pcnI411G/UG1Sr8Iw3FImbDzNHIpBMbDwtro6g+4DAfPcVL9pex/1JmkWUyIzWAyWKC2YZmBsSb22G3yqoPG5mLRyGORQSrje9lFm81PUG4PlTUosUrRYTBRwSZonhfM6/wC4GLaodmsW230qF4NNJIuIxCWWMSLkW7AZ3DcoNwci3BKgje997zOE41HjE+qcQiCSbK+yMdlKP8L+hP53sPPFsKmBwL4WRCyAmSKRRqJQAGVx0Btv00pv2KLiOFyyFszRhgSQgNkTq+9liA15d9Nra1oQYOzvFIriWxCrcC0luUNm6HTUHqN71buyGDbFz4maPvEWOJ2TXKGI0VHO3hzexF+las3C/rEijEs6tJfu7CwsdQV5T3pJuSSwIt+V2Kr3L5hGVKubaOCu/U36Vs8M4q8WlyUN7qrlStxYlHXVHtcHodQwO1bGMXF4aaKSUFsgtGWa4sBe11OhAINr31rQxmNaaQySG5Nr2AGnp/3N6qLFhuIwXhEQZ5I7ZMiSd85uTlYsSiXvZsmcEbKKhcZxCaQtHooZyTFGioC19iEAzkHQZrnSp/DcRwUaqkMbPmF2vdXXYW70MCCLG4AynMLEaitjGxiBDJbPMSBndVzX6E5Ra9h4tyepqdKq/DZZIMQrBSJFOgtrmII2+ddB4Xx2HEgA2il218LHy9DVRj4i5kTvTmswtdQSpvoVuN/TavPaXDzLMZMq5WsLqNCbG5OvK35+9L/IuXGnniQmNFLLqQxOqjU2t1tW7gJS6I7IyFlDEMLEX299NarXZvj7hQk3OmwueZfY1tcY7VJC5jjjeQgCxZsqkkX2AvlF7bi5B2qCxSyqil3ZVQbsxsB6XPX0GtV3iHaYk5cOvX7x13/sTp7tr6CoaPhuLx7h5Sco8J8KJ6Iu3+fMmugdney4UKsal2/ER/joPU1LVVBI50UCFpPrcpBaUXzJGDoATrndhr5KtvitVn7K9jT4WZ5Xds7hmOXOdSz9L/v610ThfZJVs0pufwj/ACd/kLfOp2PAqrAqAoHQC3S1Txt7No7hfZuOOxeznytyj5dfn+VTgFKVuTTJSlKoUpSgUpSgUpSgUpSgUpSgxpCASw3NasP3rfzpW9XkIL3tr51NDRdAZiCAQRYg9RlOlUftZ2HiUtLhYmMhIugflC/FlU9dF5b+dvKr0w+3Ht/i1fcR96vy/c1FfnTiODDy93IDY6MNiCA35EEda3OH8Zkw32GK/wCowx8Mh+8jA01G7AD3Ntr+Gux9sOzsU9yI4hOwssrICwsdsw12uL9L9dq5D2m4TLhpo0mTKcwsd1YZh4Tsw/XXUCr2JvDL3SCTDlJsK45lGqOl9rHwNuLfI1FdnMSuLxIhKscND3jFXRbqo0iIO4YEqdCAAOtRcLPg5O8wzAI5+0gYXjf2/CfUbadNKs3ApMPiwXwztBiU8cb2uvQgj4k9fzttWOZ+F2o3GoVbELnk+wzstgQLMNHOugzEBiTrZh7CL43w1IiGjkDo+q/it1NgSMl9Ab3Pyra7W4CeGVlljyBmZlKm6Ne3hPyGh1861eFcLkn9FU72ubm2g8+mlbtkm01bWHh08SFu9W4ZbBgSchPXKCM3lbp67VNYLGFQI5rSQt4GBuLX6N6dVNiPSpBfo/lK37nE26num/Pw2Iqv4zBSYQ6c8bGxVgbXHmOjDow1/aszOVrxsTmDw+HzNJGMzKdMxOutrrvtr+VbvE8UnfCKEtMrhQQRYEi5YLsQLDxXHXW1VtcZEqqY3vci8VmL+ov4SNzmuL7WFXbA8MWRcohBRgbtINNRblW9y3qdPel1EinYyVZXtAHDAnKqjbW1ixNvnrer3w/gRxHdNPhkWUKFujtlYC9rx2PN6g1aey3YIIoIXu1/Ew5j7Dp7n9av3D+GxwiyLr1Y6k/P/FSY38QtVrg3ZHQGbQdFFv8AwP5tVsw2GSMZUUKPT/J6mstK3IzspSlUKUpQKUpQKUpQKUpQKUpQKUpQKUpQKUpQK1Z4SXVhtpf5EmtqlBH8S8SV545EHTISQHDKSDY2IsbeutbWKw+YjW1qwcU+H5/4rNVyTtr2HxEVu5Vp4ydCouw0Ng6j/wCw09tqqvFMIMwlUtHKhFpENmHT5/zpX6I4p4B7j/NUTtV9HqvEHwpCNy3jYnL0uVOpX21HlarsVnhfGo8XGYMaiXOzW5X6AkfA/qNL+W1TPY3Ax8KklzozxObrIFLNCbWZWUDMVOnMoJ01HWt/sn9HaqUmxLhiDcRL4QQdMzfENL2sB7je68S4UsuoOV/xAfuOtZs+4rU//bsDa/1uH+3OM3/t8V/lXMvpAhXikqGCJo40JzzMuUymwC2Q6gAXGZrHXawBPQZOy5JHOmnXL/it7BdnY0N3+0PkRZf/AG9fnWb504jnHZb6PEFisYPm77X9PxH+aV0vhfAYobG2Z/xHp7DYfv61KAWr7W5jIluylKVpClKUClKUClKUClKUClKUClKUClKUClKUClKUClKUClKUCsOIw4e1+n8NZqUGnxMcg9x/mvsv3I9l/wAVsSxBhY7Vixg5Db0/cVLFfcF4B8/3NZ6wYLwD5/uaz0iFKUqhSlKBSlKBSlKBSlKBSlKBSlKBSlKBSlKBSlKBSlKBSlKBSlKBSlKBSlKBWLFeA+1KUDCeBf7R+wrLSlApSlApSlApSlApSlApSlApSlApSlB//9k=;" vertex="1" parent="1">
          <mxGeometry x="560" y="60" width="162.28" height="120" as="geometry" />
        </mxCell>
        <mxCell id="MC8lnm2CJXITioSH9_ZT-5" style="edgeStyle=orthogonalEdgeStyle;rounded=0;orthogonalLoop=1;jettySize=auto;html=1;entryX=0;entryY=0.5;entryDx=0;entryDy=0;" edge="1" parent="1" source="MC8lnm2CJXITioSH9_ZT-6" target="MC8lnm2CJXITioSH9_ZT-12">
          <mxGeometry relative="1" as="geometry" />
        </mxCell>
        <mxCell id="MC8lnm2CJXITioSH9_ZT-6" value="" style="shape=image;verticalLabelPosition=bottom;labelBackgroundColor=#ffffff;verticalAlign=top;aspect=fixed;imageAspect=0;image=data:image/png,iVBORw0KGgoAAAANSUhEUgAAAN0AAADkCAMAAAArb9FNAAAAzFBMVEX///8AgsYAdKX///0AgMUAfsUAfMTU6PQAhsgAcqQAg8fs+PsAcKNaptUJlM6ay+Zntty02u7H5vN7veBLrNj2/v/g8fgfjMs/o9UAjswAeKja7/cAesSEv+F1tNzP6/Wc0+pZstvm+PsznNGx3u6Lyua+4PAAhbg3p9ZdpcMBhLtlr9rc9fl8xONJpdWExeMzl86V0emk0Omy5vOe1OMAjLq01+TS7fE1ls8kf6ut0+EgjrVJocGNw9a+3ucAl8+NvNJUmr16ss1fscwJAGxNAAAMb0lEQVR4nO2dC3eaTBPHQWYJgkGCQUVsQVGTNF4SkzY15tKn/f7f6d0LIAsYNekrpGf/p6fHgCT7c3Znd2YvSpKQkJCQkJCQkJCQkJCQkJCQkJCQkJCQkJCQkJCQkJCQkJCQkJCQkJBQWkrZBfg7mnpFV73ZyDh2Sf62jEnLVLVhwY2wr8ph0z9+kf6WHN8ydQSA5k72ljJDsozvaGGz/SmrqBPMCZqMpS4yBMpIpzcIoDsup3wf0wNmk5lAH/H32mZ8S5bRoJzyfUxTbUMApsdZ7xzJm3ufnk5G3XTTG6fg/gU6GbU2d3ydu3NeXhnfL55OhqTpGV3uBjots5TvlZehc6NOXZmp8uena/N0sno5HE6n0+E98NfhU9JlaibG0DRd1jU5e3ledknfo6ztSNdNJGevfkq6YY6uWNAtu6Tv0bAj6DBdmH1ScSo3sM4Fa/vSya7NwfjNMCwImUqV99pteunRVru7Hxs2nmwZMZ+/CPHguyBkKlVGFwc7WjibRCZUAhft5orxUGhLJBwchxqLmcAqlSYjxSIs2N1rN9ZZ25Gclr5ntYz43KU/CztJfwF6UDZSSkHcReNoFLmnt+f7Gy7G0dR0VwgdrzKehR9SYsCDDBd9LJmfw6rQKd3DaXYql60oS4G6u7CHS6tGvqzt/h9Mh1tiNejsPQeUhwmNK1Izx/3dlkAqSWyifIiwDe6yInCScrmjA4C+O1iO7u5GzXPs+PeBA21aNlWi4dstD3VHjhLJuL3Zhw+CsplSGr3R9KAzTtiIhrPd1RNdV6VeUs221k0wbSWjtz4L9sxNu2wgTsZ8Cx6YPkNyPN9vs5fY1Ihomw1zifnSNS1ueqAxy/mWqfb7WjeglVQKrMXtuDXXi5ugOiubJqdR4eCyP6ZwCzZjAqCGzJQS/TccuwVPQVit6I6qqOmBSVmszS0U19TIxQxy1RPgrmyUAjlm3gzoFltICdIVEN0YaTynlcerWqsjcvJ5FOhMMUAmsYlacd1keFbW5pWc0BvlIwUUEoZx5gYehtiW6ZoWczhGmP1UOhVcLnCeq2HIHBHjzHOp9ZD0BqCqFvWgo6zx+tWrmoabYVDDM9rC8sO0pKXhIQnRa+YNqFI5Iyqbr38gtyLv0d4+8AI0ov1FptsDc1Kxuunws3Kg3cZuw3tj2AUh5Z/d8J8AQNiaVKbTM4LrDtd4QBsxxzgNvobb4fCwhBnYyaQ/cSioutdBBVLSw4mlqbxjAGBw05befzs/psZ9+zAXI2JA7XLpl2lCY2K5kANAC1ris935aHSX9HuXBR8DID2clMVmt25yiUhSppDWt2CPfAvMF0vb2dLv0Tf0m2XRhWqhP9TuSWn3SyaR+hdOKN6k8IH0UpCjyvlZWH79OzGdtHceEBC6zQ62U3RljcuMQjrt4g9pS7e7E2UpwIBau2hqpbTFOoV0+kX9B6ZzDsq+g2lsa3lwWSW6b73eAwnGD5ziosb7WhQiVonO7dVXxAdODqmY0YhTWhRMSJRG59zk6DoXtfqKNLvlYTMn0CV02ViJcpe2SC5Hp13Ua8x2B84LwXwLHailxbLZNJ9+UcNaDck45cCa+ZXQfcnQ4RgQwrOy6CyV6871ix6Gq9deiFfZez6EYsj5OBfIMGxc4jjTmMzCzepn7C6J6WqNR9zwjHybfIsuJLXZ2wTAFG1hlx3mGfaiq7FkpbuqMTram88OaHig0bFYM6nooIcz26nEdhPFb3Z1FWkXDC5yK8Pdyx4Qq9egsmhwY264tiu1mMoYWdhdRqJVUwp2rXxAg2AOqtrXrCmNdFvx5wEVmTJPyVjFcLX6msY01g7Hoi4lxbBHfpR/CZLRDY6gyqbJ6amR4DWeaXlnWsJXtOq0w+Xc7U2yF7WqVC2ZHjd09d4Li9i6NHGJuy09zK+0DVOTls5zKmBSq5fPlIZJu8PGWz/QjIIzsV5d1yTd1iLbvavLiAz7pZenb+mNJ5VJh6WUqpoJHiE0HPLSyeRk0SsxnfMwfXj8tW5801NGreI8gvSYMh6unPeSpKT1wC8m0zxitl+Ner3RqKfhSEatbJS8lKc0HR6QXfkKxzcxN5u6kEunSKY9POqu1S403qxm4W7LUvXcqPFq9K5+DKPaSf/3r3XmZJB+/kAvX9FnMnAk6qlay3uo1WtZNRqr//48Pz9fre+ZFW3LxL2aOWBJMIV9IL0sHLbtomwcXsY6azpWPxtMtfvEyWBJMRz5QHrfcnA43CgtR1uo34VwKcxfDu9kJIc9UgiHe4UKzCEk+vE2GzHi00vKyeAubk0tV+PcZQrvvDrjlfY63+hyjRA7mWhlvmL8uOoxY18Uw5EFBZXBu9pRLyO++urqF3Yyv65WjeiBLZaT2TqesrGYHveCw9UzdjKxpXN9Qdp4YTUWi3n7seXV62yHw46lGnS5fvxvwMkoKJuLabja7VOK4Ar7ggSuMuOV+8Z78HiPApk8jFadseYTXzfr+9DyfQHqDrTUHhRAt2UzbZQeh2G/uP6z2tkUOThAA0dy7qxXNVq6Uq21Yn7U9OqN2vrZU6T20w48ri9AGtt8oDjeeO5iE6LQqEhnx3RfJyFB77/nKDVuPNfe4uPiAujam1/keGcD16xayu85hUb18sbojA963GyCr12Nni4l59HOuHC/txWO7wvMckr8MT1so8vAwaek87bRZYbO/xZdNi74V+hoiPAtd7rFp6RrZ+l6f4gm2RVT4JZd0vdouuLhGn+iG5kVA5+VjuvwGuukx+AXhP0LdPXeQ3LH6XJ4n5+u3nhO3fK5BYCd0or4AXFBbeOJuxekz//5lLYbft/Q1Vf8PlbF2ngW0Eoq4Ic0/J4KYh8zN+OmB0g1q7L3+jC9/F41GnVC2PiduznVyGSQql2PqhXK7S+Sc17VG/XGumARQwCyex5ULtY5SE77x+/1qigYVYJJuypprw+pOjvjhYSEhISEhISEhIT+uoyTSH47idraJ2mxuMY5aQ4Gg/EJe9PJScFbNvLwtU2o58Rv84bxG8lPx1jp3uwjdiqR7oataOp+EF0jUtkRdd65rJKfwFzgUhmmilJv0TJBq+eqqJ8sclBsYO8GzZwH9KpB3nCM/U7NON9DMgcaW+TLpV/pXgmf7jWnW0WQa0uZbUFZujFZD6AnqxyS7c4kN0EPsTVM/PJYdKBikRJFZwkSOogNA/iSM6ffzKHLZJZfxXRmX2Uz/vRRnaNT2ObnzdEclC7+E4gcc4Tp5GPRwc8mVotswlVbER3ctGLhD9vH5YP5XdtudkFdYNoleWKOL96MySu+CY1YdjM+p57SwXjZHA8o5ujIdOy7HAxSWvoS06Hr5B0KzcZGZnXOBokLaaHiJURkfzOxUvwNJZSOVEjFdjHVQCmDjr40iRl4OolaA6I2KW1wttDZALJuprZZJHT0EXh1SqFbbqWjNdMd+3yqcgsdqdfmHUaEe3YhRTcGOkdUBh0pVhjRwc8vkYjHcELiVXB30BqlaIrpyJlVaCGFkBzZnrGdeWy6oWEY/kzHf9JSJM5nqrrNCsg2VCJkBsmjxXRj/AvdtjQiDsRP6BClI4ciweVx252sd7Do/jOgLPFh2EQaWzjkzyE6t3tzcHchHS24xXavq1ZCByPbntySg3XU5nFtF3W1xDRsWwSho8RYbpR4dk5mITNgsuOskC4gzwae51kQd/O0v9N1dnoVdIZHpgOINvIGSkwHp22PaVN8w1+SPhHF315RREe3YWsd13XJSlt1nNBF34OBOuSzOWq765xe08FIfEpBzmdKSmQv5Rw2nr6IzmbDteiUMeaCKR0ig5W+ZtGqcFyvIrFvm0LRSZd5utv+IHLp2KzuG3SD1CAOotXQtN0t8JAmiNeeHb1HmHZwEWTWo9GaOWxHciTlTANkjj3H8bGvSA7ELKAjM+gw/8r0k7x2IjpusHb8/o7MfQNbJkq8itaJtcQhAWmcqBOGZK+uGo+wCuhawNwG1Qj/atKhpPq7SCX05gM6io7pkmlw1MTjwxBFQRLdAxqj5OgcF1KxgfEKdM1wmXR9UBnd0FSx7yTuw+pDIkT6J2n4BVTEfuwm4U4LP8rTBeQ3JHOXyriPQ0ZfsnU8KsjQ4SvHoDs7PT1tsSJO8MvTAW4g49O0WCmM4PzGNEMrtYk1wDdnHJ1FftlmMGrMyeOKj/+f8+1ugC/ZUgnKTeonFxyjepv+hYSEhISEhISEhISEhISEhISEhISEhISEhISEhISEhISEhISEhISEKqD/AeMb7eAJzbBcAAAAAElFTkSuQmCC;" vertex="1" parent="1">
          <mxGeometry x="150" y="460" width="124.38" height="128.32" as="geometry" />
        </mxCell>
        <mxCell id="MC8lnm2CJXITioSH9_ZT-7" style="edgeStyle=orthogonalEdgeStyle;rounded=0;orthogonalLoop=1;jettySize=auto;html=1;" edge="1" parent="1" source="MC8lnm2CJXITioSH9_ZT-8" target="MC8lnm2CJXITioSH9_ZT-10">
          <mxGeometry relative="1" as="geometry" />
        </mxCell>
        <mxCell id="MC8lnm2CJXITioSH9_ZT-8" value="" style="shape=image;verticalLabelPosition=bottom;labelBackgroundColor=#ffffff;verticalAlign=top;aspect=fixed;imageAspect=0;image=data:image/jpeg,/9j/4AAQSkZJRgABAQAAAQABAAD/2wCEAAkGBxATEBUQEhAVFRUVFRUVFhUVFRUWFRUWFhcWFxcWFRUYHSggGBslHhYXITEhJiktLi4uFx8zODMtNygtLisBCgoKDg0OGxAQGi0lHyYrLSstLS0tNystLS8vKy0rKy0tLS0vLS0tLS0tLS0tKy0tLSstLS0tLS0tLS0tLS0tLf/AABEIAG8BxwMBIgACEQEDEQH/xAAcAAACAwEBAQEAAAAAAAAAAAAABwQFBggDAgH/xABOEAABAwICBAcJDAkEAQUAAAABAAIDBBEFEgYHEyExQVFhcYGRFyIyUnOTobHSFCQlU1RygpKys8HRIzVCQ2J0g6LDMzTC8OEIFWOU8f/EABkBAAMBAQEAAAAAAAAAAAAAAAACAwQBBf/EACURAAICAQQCAwEBAQEAAAAAAAABAgMRITEyURITBCJBYXGBFP/aAAwDAQACEQMRAD8ActdWZdw4fV/5VNNVPPH2717zHMSeUqM9qrFJHXoeLqp/N2KNPVzfsuaOltx617vavB7VVYOZZXT4rWt4mOHM0+q917UWk7XbpG5Dy8LfzC+3sUKqpGO4Rv5ePtT4izmWaFtSSMzSCDwEbwetfDql/N2LJsbNAc0biRxj828fSrfD8YZL3ru9fycR6D+CVwwdyywdWyc3YvJ2Iyc3Yvp7FHexCSDLI1ZjNSzvhkLfmm46d/ArvCMVjnbdu5w8Jt945xyjnVM9iq5oHxOEsRsRvsPy4xzJnBNHMsYUNQ5vHcchVpG8OAI4CspgeLtnbyPHhN/Ecyv8Nd4TeSx7VllHG425OSM041iYpT4jUU8M7WxxvAaDFG6wyNPCRc7yU81zFrM/W9X5QfdsVKEnLUpUk3qTu6pjPylvmYvZR3VMZ+Ut8zF7KxaFq9cei/jHo20etfFw4OdO1wBBLdlEMwBuRcN3XG666Jp5mvY17TdrmhwPKCLgrkBdKap8U2+EwEm7ogYHc2zNm3+hkPWoXwSSaRK2KSyjXoQhZSAJK6xNY1fBiMtPSzNZHEGNIMbHXflDnG7gT+1b6Kc08zWMc9xs1oLieQAXJXJOJVrp5pZ3cMsj5DzF7i63pWiiCbbZWqOXqavuqYz8pb5mL2Ud1TGflLfMxeysWhafXHov4x6Nm7WrjNv9y3zMXsrobC5nPgie43c6NjieC5LQTuXIr+A9C63wT/aweRj+wFn+RFLGERtSWME1RcTxKCnjM08rY2N4XPIA6BynmG8qm030vgw6DaSd9I+4iiBsXuHGT+y0XF3c/GSAudNI9Iqqul21TJmP7LBujjHIxvF08J4yUldTnr+Cwrchq6Qa6YmksoqcyckspLGdIjHfOHSWrD4hrQxeU7qkRDkijY0drg53pWNQtUaoL8LqEUXU2l2Ju3nEKnqmkb6GkL9h0vxNu9uIVPXM93ocSqRCfxXQ2EbXDtamLxcM7JRySxtPpZlPpW70d1z00hDKyF0B+MYTJH0kWzN7HdKR6EkqoP8ABXXFnXlHVxysbLFI2Rjhdr2EOaRzEJca39Lq2hlp20soYJGSF12MfctLAPCBtwlKfRLSyqw+XPA+7CbyQu/05Bzj9l3I4b+kblota+klPXijqIT+7mD2Hw435o7tcPUeAhRjT4zWdUSVeJfwid1TGflLfMxeyjuqYz8pb5mL2Vi0K/rj0W8Y9G07qmM/KW+Zi9lHdUxn5S3zMXsrFoR649B4x6Np3VMZ+Ut8zF7KO6pjPylvmYvZWLQj1x6Dxj0bTuqYz8pb5mL2Ud1TGflLfMxeysWhHrj0HjHo2ndUxn5S3zMXso7qmM/KW+Zi9lYtCPXHoPGPRtO6pjPylvmYvZR3VMZ+Ut8zF7KxaEeuPQeMejad1TGflLfMxeyjuqYz8pb5mL2Vi0I9ceg8Y9G07qmM/KW+Zi9lHdUxn5S3zMXsrFoR649B4x6Np3VMZ+Ut8zF7KO6pjPylvmYvZWLQj1x6Dxj0bTuqYz8pb5mL2V+rFIR649B4x6Om6jE4I3ZHyBrrXsQeA89rL8ZWwu8GVh5g4X7FDxTC4pH5nNN7AXBI3Dm4FUzYBHxOcOw/gs6jF/pje5o3sUd7VnBRVEX+lKbclyPQdy9IsdlYbTR35wMp/I+hN4P8OFw9qjvYvWmrY5R3jt/inc4dS+ntQgID2qBV0QdvG4+vpVs9ijvaqJnCNh+LOYdnNe3E7jHTyjnV24Ai43g8BCo6mnDhY9vIvLDq90Ltm/ew/wBvOOblC44/qOl09i8HsU4gEXG8HeDyrwexKmBSTMfC8TRGxB3/AI7uQ8iYGjtVtWCS1szWm3Id4KyUjFqtFow2INHAGj1lLdxOou1zFrM/W9X5QfdsXTq5i1mfrer8oPu2Jfjcn/hWnczK/bL8V9huHbTDKyYcNPNSv+jJtY3Dtcw9S1t4NDZQpwf+n/E99TSE+JO0f2P9UaT61mqzE/c+LU7ibNkJgdziQWb/AHhiS2OYNCzWYs6XQhC88yGR1rYnsMJqCDZ0gELd9v8AVOV1uhmc9S5qTi/9QGJf7WkB43zuHQMjPXJ2JOrdQsQNNSxE/QF+K+0ew7PS19QRuhp2NHM+WaMA/Va8daoVXJTJ+P4D0LquPEoqbDmVMpsyOnY53LuYLAcpJsAOUhcqP4D0Jr64MdIpKKgafChjnlA4wGhsbTyi4cfotUbY+TiidkctIXuk2OzVtS+qmO925rb3EbBfKxvML9ZJPGqtCCrpY0KH3DC57gxjXOc4gNa0FznE8AaBvJTT0Y1MyyNEldMYgd+yiyukHzpDdrTzAO6VqdUmhLaWBtZMz3zM24uN8Mbt4aBxOI3uPVxG7EWSy95xEhO38RiaXVVg7BvpnPPK+WUk9QcB6F81mqfCHghsD4z40cslx0BxLfQtwhR9kuyflLsROlep+pgaZaOQ1DBv2ZAbMB/DbvZOqx5AUs3AgkEWINiDuII4QRxFdhJT65dCWvjdiUDLSM31DR+2z4y3jN4+UdCvVc28SKws/GJRSKB0QlYZmudFmG0DDleWceU8o4R0KOhaiw+6XVJhEjGyxyTuY9oc1wlFnNcLgjveQr07jeF+NUedHsqNqLx0y0b6R5u6ncCy/wAVJcgdTg8cwLQmasM5zjLGTNKUk8ZF33G8L8ao86PZSMxmmbFUzwtvljmljbfecrHuaLnjNgut1yfpP/vqr+ZqPvXqtE3JvLHqk3uVi22qzRWmxCeaOoL8scbXtyOym5dbfuKxKaWoD/d1PkWfbVbW1BtFJvEWa3uN4X41R50eyjuN4X41R50eymIhY/bPszecuxd9xvC/GqPOj2UdxvC/GqPOj2UxEI9s+w85di77jeF+NUedHso7jeF+NUedHspiIR7Z9h5y7FLpbqtw6moaipjM+eKJz25pAW3A3XGXeEll1BrF/VNZ5CT1Ll9aaJOSeS9TbWoJsaudXVDW0Damcyh5fI05HhrbNcQN2UpTroXUwy+DtbyyTjteV2+TUdDtjaWhGj1RYQ7wZJz0TNPqavvuN4X41R50eyp+r3QFuFmZwqNrtWxg/owzLkzG/hG983oWtbXwk5RLGTyB7b9l1mlZLOkiDnL8Zg+43hfjVHnR7KExELntn2c85dmblaokjFYZbrwkYnTFe5WyMUWaIEWIuOdWUjFGkYqJnCgqMO35mHKf+8B4l70eMOackw+lx9fL0qdIxQ6mnDhYj8wqaPc4Wu4i4NweAjgXg9ipaapfA6x75h4vxHIVfMe17Q5puClawdIb2qLUwBwsf/xWL2Lwe1MmcIuEVxjdsZD3pO4+KT+BV69iz9ZT5hzjg/JWGA12duyd4bRuvxt/MLk1+o6SXsWl0c8DqHrKoXtWg0f8HqHrKjY/qdRbLmbWU34Xq/Kj7ti6ZXNusVnwtV+VH3bEfH5P/CtO5k8iZuqPDBUUeJ0/xsUbBzOLZsp6jYpd7NNrUK23uz+h/lV7n9GVsf1E4GcoseMci+4XOY5r2bnMcHNPI5pBB7QtFpvhewxGpitYbVz2/Nl/SNA5gH26lR5FRPKyPnJ1XhVa2eCKdvgyxskHQ9od+KlLD6ncQ2uGNjJu6B74j0Xzs/teB1LYYjVthhkmf4MbHyO6GNLj6l50o4lgxtYeDnbWpiG3xac3u2LLA3ojHff3l6yWRTJnue50j/Ce5z3fOcS4+klfBYvQisLBsSwsDCwLDMmi1bMRvnkBB/gjljjA+s1/alpkT/0pw33Po26n444IGu+dtIy4/WJSJ2anVLOX/RIPOX/SK9m49Cu9Ma3b1j33uGtiibyARRtZu5swcetV+zX5s1X9yORsiv8AQLBhVYlTwOF2Z87xwgsjBeQeY2DfpKp2aY2o2kBr5pfEpy0dL3s39jD2pbJYi2ck8JjvQhC84xghCEAC+JomuaWOALXAtIPAQRYgr7QgDlDH8K9zVc9N8VK9g52g94etpaetQMi3mt6kDcWlcP3kcUh6cuz/AMaxmzXpReYpmyLyjX6mq4xYqxl908ckR5Lhu0aT1x2+kuhlzHoa/JiNI/kqIh1OcGn0OXTiy/IX2yQu3Bcp6Ss9/VX8zUfevXVi5b0iZ79qf5mf71678bdnaf0psiZ+oNvvup8gz7aXOzTM1FNtV1HkW/bVreDK2cWOhCELAZAQhCABCEIAzusT9VVnkJPUuZMi6c1hD4KrPISepc2bNbPj8WaKdiNkXQOpcgYQwncBJN9spD7NPXVTAXYKYwbFzqhoPIXOcB6135HD/p23iYOtrMR0grJIqd5ZSx8DS5zYmsJs18oG973WJDeLfwWJVk/UZJluK9hdyGnIH1toT6EajMahgdPQzkRSve0tz97mc0ZHxkngcCODjueROgkWvfcp2WSg/GOiElJxeEIzR/SWuwWsNDXuc+DLcDMZMoscj4HHflJblLd1t+4EG/4vDW/icdbiEUFINs6KNzCY++zPJLi1pHhZQ29xynkKE/hGSTloxvGMtWTdYpcK27XEfomcBI43cio6bSSui8CpkI5HnaDo7+9upaLWGy9X/SZ63LISxq8MOKyba0nBZRrMN1jG4bUw7vHi9Zjd+B6lr6DEYKhmeGRrxx24W8zmne09KTMsa+KWplheJInljxxt9RHARzFDpT2Fs+JCXHRjskYosjFSaLaYMqbQzAMm4uJknzeR3N2LRyMUcOLwzzp1yg8SKyeIEWIUOkqHQPsd7HcP5jnCtZGKHUwBwt/0J1qTLYgEXG8HeCvB7FBwOqIJgfz5fxH4q1exJszpBe1V1SHRvEzOEHf/AN5DwK3exRpogQQeNOmcLmGVsjGvbwOF+jlCv8C4D0D1lYfRyoLXugdzlvSOEdY39S3OC8B6B+Kz2rGgyLRc66wmfClV5QfYYuilz5p8z4TqvKD7DVz4/JlatzL5E1dRjbe6/wCj/lSz2aaOpJtvdX9H/Ir3cGVs4lVrsw7LVw1AH+rEWH50TvykHYl1kT01u4ftMP2gG+GRj/ouuwj+4HqSU2a5TLMDlbzEYGpKvy1M9MTukjEjeTNGbG3OQ8fUWw1s1+ywyRgNjM5kQ6Ccz/7WuHWlVoXW7DEKeW9htAx3zZO8N+jNfqWt1012aaCnB3MY6Rw53nK3sDHfWSSjm1MWUfuhXZFb6I4Zt6+nhtuMrS75jO/eOtrSOtQci3+pvDs1ZLORuiisPnSGw9DHdqtOWItlJPCybvWcPgmp6I/vWLnzIuhdZI+C6joZ94xITZqXx+IlWxFyIyKVs1+bNXKkbImZqNbaeq8nF9p6XmzW+1NTZa2WPx4Cetj2buxx7FO3gxJ8WORCELCZQQhCABCEIARuuZvwmP5aL7cyw2RbXWlNnxSUfFtjj/sDj6XkdSyezXoV8Ua47I9tH2e/Kb+Yg+9YunFzpohTZ8QpW/8Azxnqa4OPoC6LWf5G6JXboFzJpEz35U/zE/3jl02ubdIGe/Kj+Ym+8cj4+7Cn9KfImPqQb76qPIt+2sDkTD1LttVT+Rb9tWt4MpZxY3kIQsJlBCEIAEIQgCg09HwZV+Qf6lzpkXRunQ+DaryL/Uue9mtfx+LNFWxGyJ66oB8Fs8pL9spJ5E7dVbD/AO1ADhL5h2uK7fxC3iQtONVtPWyGoik2Ezt7+9zRyHxnNuLO5wd/GCVjm6msRPeOrIcnzpju+YWgelfbdVmN2/WDP/sVPsLO0Gj2JTYhLhrK07WIOLnGefZnLkuAQL378cXEVyOUsKRyOcaSG9oLq7psOO1zGaci20c0NDAeERs35b8tyerchJnS/CsRw6VkM9Y5znszgxzTEAZi2xzW37kLjpc9fIPW5a5Nvp4y9V/TZ63LKSxrZaasvU/02+tyzEsavB6I2VP6oqZY1EljVtLGoksaqmXTKp7SDcJkaE6T7ce55j+lA71x/eNHL/EPSN/KsDLGo7HOY4PYS1zSHNI4QRwFdlFSRy2tWxwx3SMUWRi+NHcWbVU7ZRYO8GRvivHD1HhHMVLkYsuzweNKLi8Mo8QiItI3cQR/4Kv6ScSRteOMb+Y8YUGaK4IPGvHR6Ute+E9I6RuPaLdi7LVClm9ijvap72qO9iVM6Ulfdj2TN4QR2jg/EJiYDIHNzDgc1pHQblYmugzMcObd0jgWq0L/ANuz5o9bkt3HJ1GhSE07Z8JVPlB9lqfaRmm7PhGo+f8A8WpKORWrczORMzUw23ur+j/kS9yJj6n2290/0v8AIrW8GUs4m6xyh29NNB8ZG9o5iQbHqNiudBHzLplIfS7D9jXTx23bQuHQ/vx9q3UpUPdCVP8ADPGNWWkOJOqqh1Q4WLmsFuTKxrT6QT1qPkRkWgsRtmnDqloNnQmUjfNI530Wd4PSHHrSnLF0BgNDsKWGHjZG1p+dbvj23Ub39cErXpgqtYo+DKjoZ94xIvZp7awR8Gz9DPvGJJZEUcQq2IrmblbaT0GyqXC1g5scjecSMa4/3Fw6lDLNyYGsTCL0tLVtHgxxxSfNLQWE8wNx9IKjlhodvDQtdmrnQ+vFPXQzE2aH5XniDXgtJPML36lAyI2aZ6rAzWTo9CxmrzSYTxCmld+mjFhf94wcBHK4Dce3lts1glFxeGZGsPBGxGtZDC+Z5s2NpceriHOeDrWJwTWdC8htTEYSf22nPH1i2YdhRrZrZRFHA1jtm455H2OTce8Zm4OHfbmalfkV66045ZWEE1qdE0lVHKwSRva9p4HNIIPWF+1M7Y2OkebNY0uceQNFyewJC4Li9RSvzwSFvjNO9j/nN4D08PIVpNKNOHVVK2BsZjLv9bfcEC1msPDYneb8lt646Xn+HHU8mLxOpdNPJO7hke59uTMSQOobupRsik5EZFqLml1WYfnxBslt0LHv5rkbMD+8nqTqWK1W4QYqZ07hZ05BHk23De0lx6CFtVjtlmRmseZAudseZ77qPLzfeOXRK5/xxnvqfy8v23J6N2NV+lPs0wNTrbVM/kh9sLE5Fu9UbbVM3kh9oKtvBlJ8WNNCELEZgQhCABCEIApNNh8HVPkX+pIPZp/aZ/q+p8k71JFZFqo2ZerYjbNOfVZuw1vlJftFKHIm/q2jvhobyvlHaSu38TtuxltNNbjG3p8OG0ee925F2AndaJn7x3IeDg8JZTRarkwrFmTYlmaZ4HPe43e8bY5g54AuTmYQQL2umVo1oZhmExieWRhkAsaictaAbWtECbMvzXO/hKjaRY7o3X2iqamJxb4L/wBIwtvw5ZQALG28XslUorSK07FTWyWgutZmNRYniEQos0obFswcrm53Ave7K1wBsBx8xQm9ohohhdN74o2teXCwm2m170+I65AB5uFCPf46RQe3GiMrpey9R9Bv4rOSxrWaVwnbX/hHoJCz0satB6Gmt6IqJY1EljVtLGoksaomWTKmWNQ5Y1byxqHLGnTKplpq/wAS2NXsie8m708geN7D62/SCZ8jEkyC0hzTYtIIPIQbg9qdlHOJYmSjgexrvrC9lG5YeTD8yGql2RZGKoqHbOoZJxXF/UfQVfyMVNjsXeA8h9f/AEJYsxGhe1eD2r2o354mP5WNJ6bb0PapJgQXsWk0WjyxBvIP+TlRPatHgDbM6h+JXLH9TqLVJPTNnwhUfP8A+LU7Em9L2e/p/n/8WpaNytW5ndmmHqlbb3R/S/yLDZFvtVbbe6P6X/NWt4sezib5LDWpQWqIpgNz4y09LDe/Y8fVTPWV1j0eejz23xPa7qPeH7QPUs9bxJEoPEhSbNGzUnIjItZoJWjFBtayCO24yAn5rO/PoaU8ktNWVDeokmI3Rsyj5zz+TT2plrNc8ywQsepQaeD4On6GfeMSZ2adGnA+D5uhn22pQZFSniPVsRTGnrBSMlo2wyC7XwsaRzFo4OQpJlieeF/6EXk2fZCW/wDDlv4JPHcFkpZnQv4t7XcT2cTh+PIbqv2aeWkGBxVcWzk3EXLHjwmH8Ryjj9KVGNYFPTPyyt3HwXjex3QeXmO9PXZ5f6NCeSnizNcHNJa4G4INiCOAgjgK3WCaxHtAZUxmS37xlg/6TTYE84I6FjMiMieUVLcZxT3GvHpthz22dKRfha+N/Ye9IKxOlYwl930rntk8VkZER6Q/Ll6W9hWeyIyJI1qLyhVBLYjbNfmzUrIjIqjkbZq60T0edVzhtiI22Mrv4fFB5Ta3aeJV2RWeB41PSuzRO70+Ex29juriPOEss40OPONBzxsDQGtAAAAAHAANwAX0s5gumNNPZrzsn+K896T/AAv4D12PMtGCsTTW5maa3BIfG2e+p/LS/bcnwkfjLPfM3lpftuVqN2UqKrZrcaqW2qJvJD7QWRyLZ6r22qJfJj7QVbOLKT4jIQhCxmYEIQgAQhCAKfS8e8KjyTvUkns07tLB7xn8m5JrItNGxerYjbNNnVy4Nw4E7gHyk9AN0r8iZ+g9Pnwwx3tmMzb8ma4/Fdu4hZsK7CcMqdIa6WollMdPGd3GWNdfJFG07s1hdzvXcLau1MYblsJakOt4W0Zw8tsllk9T+lEFA6ppKx4h74ODnXsJGfo5I3Wvv3C3QVoNT+PVNTVVolqJJWNymMOcXBoL5LZQeYBFnms40SCXkttkZZk1Vo7iJjzmankaX5RuEjTcNdlJs2RrgAebp3C8NYGNHGMQiioo3PEbHNZdpa553ve6x3tbZoG+3BzoT+MWk57jYi+W449JcH2gzDhG8HkJ4QeYrDVdBIw2cwjquOojcm0vB9Gw/s9m5Z4W4JwscROSwHxT2FRJad3insKdnuFnIe1HuFnP2lU966KL5H8ERLTO8U9hUSWmd4p7CugvcLOftKPcLOftKb/0/wAHXyv4c5S0r/Ed2FNDQdxdQRgggtL2b924ONvQQt77hZz9pR7hZyHtSzvUljAlt/sjjBmJGKrxmImF27kPpC3fuFnIe1HuFnIe1IrUjNhGT0euaVl+LMOxxUt7FofcMfIe1HuGPkPaVxzWchhGdipC48HVxlaWkgyNtx8JX3FC1vALL7SylkAWKxnQmSaokmEzAHuvYtJI3AfgtqhcjJx2OptbC97nsvx7Pqu/NaHRPR59JtM0jX58trAi2XNy9K0KF12Sawzrm3oCjYlSCWGSI/tsc2/Jcbj1cKkoSCi97nsvx7Pqu/NHc9l+PZ9V35phIVPbIf2SKTRXAzSROYXBznPzEgW3WAA39fartCEjeXlit5K/HqAz074Q4NLwN53gWcD+Cxvc9l+PZ9V35phITRm47HVJrYXp1ey/Hs+q781vaSLJGxl75WtbfoAC9ULkpuW4OTe4LzngY9pY9oc08LXAEHqK9EJRTIYloFA83heYj4p79npNx2rP1Og1Y3wQyT5r7HsdZM9CorZIdWNCifovWjhp39WU+ooZovWngp39eUespuoTe5nfaxYUug1Y7wgyMfxOueoNv61e02r+EMIfK9zyNxaA1rTy5d9+srZISu2TOOyTFFjmjk9Me+GZl90jfBPID4p5j6VVZE8HsDgWuAIO4gi4I5CFkcY0IY4l9O4MPiO8H6J4W+nqVI29jxs7F6Ir7gL83Km9o1hpp6ZkRN3WzO33s47yBzDg6lltF9GpG1WaZoAis4C4N3G+XgPALE9QW9S2zzojlks6AsJW6CSvlfIJ2DO9zrZTuzEm3pW7Qpxk47E1JrYXvc9l+PZ9VyvNFdGX0sj3uka7M3LYAi2+/GtMhddkmsM65tghCEgoIQhAAhCEAQ8XozNBJCCAXtLbngF1iu57L8ez6rvzTBQmjNx2GUmthfdz2X49n1Xfmtbo3hbqaAQucHEOcbgWG8341aIXZTbWGDk3uYnSDVhh1XUPqX7Vj5LF4je1rS4C2axabE7r9HLdWGiGg9LhzpH07pSZQ1rto5rhZpJFrNHjFaZC55yxjIeTxgpsC0WoqR0klPAGvkJL3klzjc3IBPgtv+yLBCuULjedxT//2Q==;" vertex="1" parent="1">
          <mxGeometry x="107.97" y="94.5" width="209.05" height="51" as="geometry" />
        </mxCell>
        <mxCell id="MC8lnm2CJXITioSH9_ZT-16" style="edgeStyle=orthogonalEdgeStyle;rounded=0;orthogonalLoop=1;jettySize=auto;html=1;" edge="1" parent="1" source="MC8lnm2CJXITioSH9_ZT-10" target="MC8lnm2CJXITioSH9_ZT-6">
          <mxGeometry relative="1" as="geometry" />
        </mxCell>
        <mxCell id="MC8lnm2CJXITioSH9_ZT-10" value="" style="shape=image;verticalLabelPosition=bottom;labelBackgroundColor=#ffffff;verticalAlign=top;aspect=fixed;imageAspect=0;image=data:image/png,iVBORw0KGgoAAAANSUhEUgAAAOEAAADhCAMAAAAJbSJIAAAAllBMVEWPAAD///+HAACMAACKAADo2dmFAACycnLm1dX79PTWrq6ZNDSeOjqnWVnw5ubInp7WtbWUGxvPq6u4f3+6hIS0d3fCkpLLpKTav7/t4OCtZmbHm5ukUFCQCgqyZmaZKyvjyMi2b2/jx8fcu7ulR0fGj4+8iIioTk7AhISYISHq0dGYLS2VGBiuW1usZWV9AACfPz+XExNKj0VlAAAKtklEQVR4nO2d53riOhCGZUkYTLKGnAQSrxO6lxJIwv3f3LE0kiwbV9Iwz3y/Ni5Cr8qMyshLCAqFQqFQKBQKhUKhUCgUCoVCoVAoFAqFQqFQKBQKhUKhUCgUCoVCoVAoFAqFQqFQKBQKhUKhUCgUCoVCoVAoFAqFQqFQKBQKhUKhUCgUSohxVinOfjuXnxB/fvKdCvnLFf/tfJ6vZRUeqN/WWmS7eoCOM6O/ndezRPt1AR0nbGNDZdP6gI5z99vZPUN8ILM+PPwp1QH6atTCSqQ9kfMFrXIWdNfWnkg9kfOHSjPJQ/Gc3zJCxil9l4T/rpGQUTIPlx1w9VdIyNjcdoPXR8jXQcoLXB0h3WT83LUR0ijrya+MkM812Gwwur1CW8ruAM/bEMqZC4SVY5U2EdKZBOzsJRWMVXaUVymAsc9v576G2EQC+i/QMKFunM6gQmB7o1+YIrLKws9mCnz8rbmctTpl+mG4WJxMon65wu7W7mQc7Ghomhsf1wfc/PjUgm4q11dieQMrY0dpWTzrCqu5iOE4/Z8HfKqZtQ7RbVLN6Od20+VZ/19QUKOfB6y//rBTRBzMTC/dNzmJFoFfqmC5IT8OyA61AeMeJJn4h2yjzjprfRit1C9YUQ6Tg2BYLvB+QVwBzJ0AYL8NXi3WVmZ36FY4C3cuqV7Y3bwD9Rm0BJCtZXb31SNK6ax7HWMxji1ZTmLPUDeVD9L0VNBZbA5iQPoDWfykziYU6gxWl7/V8ilC0Vj7K3bZjJ8lFDU5umjGhoTBYrYLTsZ4fvc3/FxNNSSMwKuQ6SRc2qDB5W4LNiQcKxAmloFf5v2EMiQXWo2KsPpBRZjCYJQczLA9uLnMamQfMnvrqtwxIsc+3ZOhKH8106bJhY5yZEPz1vu7Mu2nCwmxPW2KjN7qgU7prhlj+5tyvZJvca78UTm2cinHkIvA1CpNPLwtzCFj3Z1X5G+MTV5WtqVzdFf5w4kmBQT8oBLZFbhGtq+5zf8dE5YGE8RBYQmzo7Kqfq69Yds66yRST9+AaCqgSlHJjzMyU091czpT/UCN79kCZ/uwcEhm5C8/ykuX6dWQp232QbW4Wk/et8QxcPJ6W66bl0o7Z7aivAFJj+IoGOLwpvwnPuCxE4/0RaoIMaiTBF2b5r5cx5bfvAS7/KFbkQpzZVMaXubIQYodF0mrXoyet4SKnQzmyitv1esIQ/Hc7kIHDlKMj2yr5fnBUz+MNiP519+ahL1LJhQ2NXQKdCWEcTbZON/5XQ2hYJwMcyCviFD0R7LaLIIrJiRyjszI9PDvsT9cLq+SUEoEdnNO3xt5i1YRKlFJOK/05LDP18rIRVinYxWBDPRVlkQbQ4jVLNur2N9SyyGHC13SKlOjGOleCwFNYEMtfbSSkPDaW+mTFvZCKTqvtZDQu20roBiSz/u9cs3Cw8Xv1ZVKbASUq918KBQKhUJ9n6qDAVsu0rl2NYofb6WQsP1CwvYLCZvJ1ya696XJfkpfS9h1lZt9/9JkP6WvJbzXiwjulyZbJq9qfcoQdl0ts3H37CaqVykjHUHRiNB/d21Rsp8Mkt3DXvqukcj5Q/w0TV5k+7+Dk21HQ2iKP4lwsrd6aK28Lucf5xCebKQwzuY6q0UbSWIVfHwa6Ji8eEJolhm5Dob8Y71fO8uQ3WaEbg4AIyoqo5d3VxHmHarlmQ/5GMJwq0N02VY17c2dusTI9rZudr3mhN6r+SE79Iaq00ZTc1glFZsjCB+TTNsvpkIdLEvj63iwZI/Al6GE7F/tqLmzCAWG3N5lH5NYfz4gq/oktOMFcAJspT/h8qYJ43vwrZAb8eJkpY61pQ7T2bbUHFxkZv98JN7n/zXI63mEYAb0D3Xg6Cw10UOyv/CZefpoCJ1HLusA/vA30Gm5VSX5hGt96YcJH3UiU1mlc30XCJNznOJ2ivBB31nyNEABIaG6s54Ser1BNI4GJ+G6wSCKRIDiKaG3CMfjqF/e0tOEkBVmOn+WcBU7iZdcQvib8GRQlU9ItLHJEnrRlnLOOKf7jc3YeZaX6cTPEsL3BES4wXrhFCtDGBhjkksYiG2YfEI4HG4duD0llN1cG5sM4c46js33Sb940maMkV2acLc3bzA+qk9ISgktnRDChVUxIQuhDwQ5hOkYbMZ1pXROnLIm3KU2g2gxYoZwl85mE8IO/KLpFDmEshZUX00ReuB8GOVqcMZUMq9wnVPK04T6Da6O4NFhTcK53ZBObWkZocfsrOURjiGeHoxNihDi7Pl8F/RGtsmCgFU27Qe9SHlgRage2wTBUpaCGUwUEOqihC8KUPOwJGTGHz5bo5YTQji9kxyUyyP05TPHLGEAVgrKGWL+YdgBwR2QeX9vEUJCcJbCgx8u2o2XhOxtEIZhdIC+6yYVDuPH5Itmj8mLZxFCxI00RzbhJtU3DsZjKQ5VroFlaWQ67MZOvSgi/V41ZxEQDP+0h5f2CDnVms8ldG5k9jtpQhnEYUIiwLWKGCSIsWLquu0tZCno4zDq5LZ8t2ukz3XfpxniDmC3568n3InxvDiUZhFCVTF9Qgn+JIGuqY9TQm+ftORY0K7Fv8Lky3ruLJ+QHCdW6CUQcjNZHXyaEGxZbPksQnDCL6Zop/JHe+ozCUw7ApsQcn18kToSc8OKO9P8VitV33lhLLGdTbyFIiy1pY62C8QmBKd3Z56+kQn1tBnUMxabMGfuWkrINrtYs6X6HghP29KvJYQXefSQJdwmhLKaZyeD5hqEY9fsDL3brdQk8gStsnsOYR1/KCWHd8dbkhDKgt+bp1/r1iG1V1fkes/pob2sx4da3uu7TQh36VeLCa1TGaofwh+6bMCMCMMD/dAc6LEIU+2wXBlCZdb0DKEJIWQnOU5XSGgF5AKht5U/qvMLwz9xpA5sqZ6R2YTTlH9pQqhmCPrHsoT90f39Qz6hL49c88TaFhN6mTp0nlNjxdD4/0Xi6NKEYJGtYX4DwpXu5bmEB8r4XT6hOsKZeNNiwuQwpiKEyRV830nVqCwqNaZRVQWDVCBcUvtOrOIjfM0IV4VzfGh59veYbMIhzC3M3/oLQIoQKpWtBKIH95jEVUHHci41hmJRI+8p2EQVwrw40MKJvmW0E0KuR6Zv8JexTqJ4U4T30noFgxcY6m+tlA2h1+nDUHMV7lRR99KEqlIZ+TuawxRCLdvBAI7wj+5f/ckZHs0EvDqwSrfx+OzPMW5a+V8sC2ahNNps3e+p5gV5uRGLJcEimkKiSfSBIvR6A+tDTExN3hix20qyIqwjF8U0T11TH9UyRXtQKaiJMNfWRf2KvK5Lxb0Xd9TaF9GLmbmHon0zr2TcVWUAB4aZO3B6yawzJUEYuXkHaknHTv10VZ9YaxDpOoxRbB9OjQnxku890NGzwr2HQkqdBeUsb9vNXtXXZkAlyQfNVvVFRWYOJVt1mBz3dPUzQ3mRJt1jTExNMyu23F9RNf0fOV1IiN6rJLZ6QYBRMsrth75rfcxat+MFEenQmNC6a0vY0n+Zj2NzSg7Z9S5D+N88mdK8mdsPcoZjveSHz3F/4GQdpTM7/ENU8n1IaK6LxetPtvGImrzOixYUvb/WbMpMe73+KP7zyQmsu7ZECQ7n6WtRzv+tcMb+oT3Yylxu9sbPCPfx2y8kbL+QsP1CwvYLCduv6yf8H6gkze7yS1oWAAAAAElFTkSuQmCC;" vertex="1" parent="1">
          <mxGeometry x="159.99" y="263.5" width="105" height="105" as="geometry" />
        </mxCell>
        <mxCell id="MC8lnm2CJXITioSH9_ZT-11" value="" style="shape=image;verticalLabelPosition=bottom;labelBackgroundColor=#ffffff;verticalAlign=top;aspect=fixed;imageAspect=0;image=data:image/png,iVBORw0KGgoAAAANSUhEUgAAAOEAAADhCAMAAAAJbSJIAAAAz1BMVEX///+/FSKAgIBDQ0NycnIxMTEAAAC8DRzBEyLFTE/GPkT++fv98/S/CR3x8fGrq6vPz8/39/fh4eHT09Po6Oj09PTBwcG7u7vr6+vb29uysrLHx8e5AACVlZWwsLA1NTUNDQ1lZWWIiIhnZ2cWFhahoaFYWFh5eXk9PT0gICBKSkq+FSa+ABO1AAD+/vrpxcnbj5LOZmrMXF/amZ/CPkb03NfBNTgoKCjIRU737OjwzMvIUVnrvr/ks7H33+Lhqa3UfYDCJjLQaXLQc3rsw8vWzXV8AAAGAElEQVR4nO2daV/iSBCHCWAnigm5SAgJ4VC5Elh1PNYZZtTZ/f6fafsCA8F5o/yyXdbzwgA9L/o/1d1VXX2kVkMQBEEQBEEQBEEQBEEQBEEQBEEQBEEQBEEQBDkOdnNwMmjGVVfjaFhNMmjWmzNy0a26KsfBWVxeWfRptecNq+rKHIUmseUnbziqtCZHIiL97eerrVhI9Enhy3BcWT2Ox2RS+HLRqKwex6PRLHypn1RWj+OBCtUHFaoPUIVRbHPiCKpCqyuxSgqDniD1KqvdJwPUhgW+msJBZfU4BjHtbeHXs6HTS9MU1hzqq9kQFaoIUIVdV+JDVejansB9N2rrwY3aHEllNfpsgLZSDp9ggFboBXEcl+JSi9KprE7HYD9qo6rpvBgSkFupAPLsSQDUhn4kKXt8IGwVlqO2SEY7nl9Z7T6ZfYWbiNUFs+QNtJUWgKwwaLfbvZK3ANVAOfsxjZhTQQJyKxUAVSizGL4Ldvbk2pLy6lrYloBJC2PkrTIdNp0HrdALgqCcxYDu8U+Yx7fR46sFUIWsC3I8qAqdDsPqdJySwjgU2kMwKcV9hdyHMMAsXABtpRzWVMutFBJ2GIZBaQZsQ83qr/hfakOfAuvYBVW44vpWK3CtVPDWSgErXNVaf12vW/QJR6HlS0QWo3WTLJPbc0g23MtifEsyI0uuAWcxbnNN0/TTFiAbFqAKW6e6phn6wzlYhc6pSRWad+AUbnfQtrhC/QycQsGuwoHDNnyBGWQ4X82GqFAZvFBiQ1UoN1h2HKekEGRMA9GGBSArjGjk7YFWyBeCSx4/pV0Q1h0gkG0oQIXqA1ShWJzoWuIcMESFfJt+HMRB2VvYm4U3MInvfYUg156K/rDq6hwBoP2QE6e9tFdSCHK3yY5Csb8dEpBbqQAVKorw+HFwwOMDYevWOyWFIG9vgWjDApAVbnfQglXoxfIc8O7KTJrCSZVyINtQgHML9QGq8A8eHwhRLClHbV25l8gFs31vX6G32UwE5kgC0FZaALJCPyqvPcFS6LKUzKH9NPBupANrQwEqVB+gCqOdk10QFf4hLsUdQ+qBCtXnqymEl6fxLi4vCgqnwxGYIZTjjchg7BcUdsczMgGzYFGrjcljm+Uq3hRST5meECiv0+lMyJRdcrliCjOdK2TnEJ06WYDI0bgnhG2yZJpap3lmaOzMjPhukzmA7UL+YMhVMEX3Z3pGm+nDPRXLC935o/J5KGdyuRlQ1qe6yUyYmfnfa/lbNF+ofktrnch9wE83iW5ohpbx42vJ7ZP42R5Oq6vcZxDz8ZK20PvXxNDeMJbad1HQJ0HVlfwQjYXYl3dv5npBoJZpef5dnFyfKB3ehMJAq3NNz7KiQiPLdPOcjzc2SSuu5UeYSRP+SDRj14S0S+Z34h+NHius4QeJyBV/rhNjx4KS5CcvTYm64dsVETHLnXlAn6aZD7y0I/8fVGQk3nL4a2cY3XZFasRfvHyyqLKSH0K+qfJ5rxe+NdNnXr7zdku1kM3vJT+oz9DyG17eJqpu9bakH3inG9KO+MrLQ6JqcOqSkD95oHZIoZ7z8ljZwdQnPf581Q/JYzY0eXlAVJ1DOaTNnz9M47ANzTNenhJld7TLdxxfHx5pNC1/4eVX6o6lDfFy6nWiHRxrDBnUTNVNnvaZG2jVWu/6Q5bOqDlzdTNSgZz7vSQH5GVG/puX2nLIVZKhuP3qySyPpoZm5iJom6rbDVkzFX7gW1KeW/DblCiu0m8h787lFWa/y+00ESFbrX6pakTD6ctElHOzJ9HgV37VWC9U2YRU2eJEevN/Ep0PL3KCn4hRpmbNGqqG3ZJoOJGf/l0mpqFnmaFrZpJsEqYjovwaVEg2Ems/b5LlMlkmye3PzU8jlT3FBiqRN1SeOnxaP6+Fj2BfrZGMzRUnJAPWElcrebPnFm8GwYIMr0Hq5dOi/ng4U74PbnDGl/Pxrtfzx/NhXfVFmSLulJBFPxDJRSvoTwhpqjrtfQ+rTVVRhkP2d9EGsfpbwmv3GW1V0zIIgiAIgiAIgiAIgiAIgiDI/5r/AH7Kghd2fRZcAAAAAElFTkSuQmCC;" vertex="1" parent="1">
          <mxGeometry x="740" y="70" width="95" height="95" as="geometry" />
        </mxCell>
        <mxCell id="MC8lnm2CJXITioSH9_ZT-12" value="" style="shape=image;verticalLabelPosition=bottom;labelBackgroundColor=#ffffff;verticalAlign=top;aspect=fixed;imageAspect=0;image=data:image/jpeg,/9j/4AAQSkZJRgABAQAAAQABAAD/2wCEAAkGBxAPDQ8PEBAQDw8NEBAPDw8PEBAQDw8QFRUWFhUVFRUYHSggGBolGxUWITEhJSkrLy46Fx8zODMsNygtLisBCgoKDg0OGhAQGy0dHR0rLS0tLS0tLS0tLS0tLSstLS0tLS0tLSstLS0tLS0tLS0tLS0tLS0tLS0tLS0tLS0tK//AABEIAOcA2gMBEQACEQEDEQH/xAAcAAEBAAIDAQEAAAAAAAAAAAAEAAMFAQcIBgL/xABFEAACAgEBAggKBQsEAwEAAAAAAgEDBBEFMQYHEiFBUXGREzI1YXJ0gaGy0RQiorHBFiMzQkNEUlNUYpJjc4KTo8LSFf/EABsBAAMBAQEBAQAAAAAAAAAAAAACAwQBBgcF/8QALxEBAQEAAQIEBQMEAQUAAAAAAAECAxExBBJBUQUTFCFhUnGRIjKBoRUjQrHR8P/aAAwDAQACEQMRAD8A7xAIAgCAIAgCAIAgCAIAgCAIAgCAIAgCAIAgCAIAgCAIAgCAIAgCAIAgCAIAgCAIAgCAIAgCAIAgCAIAgCAIAgCAIAgCAIAgCAIAgCANPtDhRgY86XZdCTz/AFZsWW1jo0jnOzNvoS7zO9fO5fGtsxPEa+//AGqZjT22SpScOqjrxXHPy1V/HBVz+DxLJno8JYqx7dNR54e+qOvH5naAXcbWS0fm8WhJ63eyyO6OSUnhZ61DXxHXpBn4ztotHNGMnnWp9ftPJSeFx+UNfEuX8MUcP9pz+3WOymr5DzwvGlfiXN7z+H4bhptJv3lo9FK4/AeeG4/ZHXxHn/U/P5V7R/q7fs/Ib6fj9k/+Q5/1Ofyp2h/V2/Z+QfTcfsP+R8R+px+VW0f6u37PyD6bj9h/yPP+p+l4ZbSX96ee1a5/AW+G4/Y+fiPPP+5+vy+2nH7dfbTV/wDIl8LxrT4lze/+mWvjL2iu/wCjv6dU/wDq0CXwuFc/EuX16UmjjYy1/SY+O/oTZX98sJfCz0q+fiWvWQ2jjgXT87htr/p2rMfaiCd8NfSrZ+IS942uJxs7NedLIyKPO9UMv/jlp9xO8OovnxfHfw3+zuGOzsjSK8yiZmNeSzxW3c2glxqd4tnkzrtW9iYmNY54ndMbpFUcgEAQBAEAQBAEAdRcM+OGKrHx9nItrJMq2Vbz1axv8GsT9ftmYjtKZx17o75fL2dZbX4UZ2br9JyrbFnfXyuRV2chdFn2wVzmRk3yarX1LEFYz6pNcDxHRKQPEdEJA8R1Sa1HiVpFajyI2kIg8iVrOlY0id0yeCO+UnnfhqwsNNMDoJYpKwWKLYrKM6iWLSjWQTquaPZAtWyPZAlWzRrIEquaRsvbmVhzri5FtHPM8lHmEmfOk/VnuJXMrRjk1PV2FwW457UZa9pVxZXMxH0mheTYus73r3NEf26TzbpJa4/Zrxzde7urHvWxFsRodLFhkZedWWY1iYkk0MgBAEAQBAHDbp7AcvZ5T2lwWuo56lm6roleexY6mXp7YP0eXw2uO/b7x+F4f4jx80/r/p1/r/DVJv06Y3x0x7CMatQmuR4jomseI6IQpEdEpI8S0QkjRGwmuSkS1CK2GlS1CEceVG5ZfCjdSeRjewW08ywWMLVcwayRKrmD2SJVpBrJEquR7JEq0GsEquRrBKtkewSrZByL1Xzz1QS1qRpxi16r4uvIezPUsf4IINj6MAgCAIAgDht09gOXs6Wx+g9Hp8/wzXbNov8A0tSP55X63fvM28y+j9Dh5N57UKzgLiP4k21T/a3LXuaDPrEnZ+hjl1e4WRxfuv6PISfNYjLPfGosPqwCzgllp0Vv6NnziCklQussM7GyV30t7NJj3DyVLWs+78/RrV31vH/GRvulel9X6jlRviY7YkaUlyyLYN1Jcsq3DeZO4frwwdXPI4m0PM7MMTWC2nmGF7BbVJijvbHXAl1Fs8evYay6OsS7i+eLXsNbkr5yd5Itng0JblR1STvJF88F9Q7cpujSCd5K0Z4M+odtrTvmSdtrRnGZ6B2CLR674uvIezPUsf4IFM+iAIAgCAIA4bdPYDl7OlsfoPSafPsNjQZ9N3G2FBn03cZFokW0HaVyy7DuLZZdi2SOlBrJFqkGsEPBrIFqkGsg4pB3FqkHsFqkGsEUgzi1WD2C08FcWqQewWqQZxKpB3OVSDWCnj13xdeQ9mepY/wQKd9EAQBAEAQBw26ewHL2dLY/Qek0+fYbGgz6buNsKDPpu4yLBItoO0rll2HaWyy7EsHSg1gtUg7iHg1gqsHsFPBnFUg9hyqQawRSDOLVIPYLVIK4tUg9gikGcWqQdzlUg1gp49d8XXkPZnqWP8ECnfRAEAQBAEAcNunsBy9nS2P0HpNPn2GxoM+m7jbCgz6buMiwSLaDtK5Zdh2lssuxLB0oNYLVIO4h4NYKrB7BTwZxVIPYcqkGsEUgzi1SD2C1SCuLVIPYIpBnFqkHc5VINYKePXfF15D2Z6lj/BAp30QBAEAQBAHDbp7AcvZ0tj9B6TT59hsaDPpu42woM+m7jIsEi2g7SuWXYdpbLLsSwdKDWC1SDuIeDWCqwewU8GcVSD2HKpBrBFIM4tUg9gtUgri1SD2CKQZxapB3OVSDWCnj13xdeQ9mepY/wQKd9EAQBAEAQBSAfI7R4F1c7U2TTpzyr/Wrj274N+PHa7bnV+Jz/BeO9bxXy/j0/wDb4udoYyXzR9Jx3ddNZrthknWNfqtuk0TmzudY/P14Xl4r0s6/s3OPOsa9HX0CaVwRYJFtB2lcsuw7S2WXYlg6UGsFqkHcQ8GsFVg9gp4M4qkHsOVSDWCKQZxapB7BapBXFqkHsFqkGcRSMmBs5r7kq5dVPhJ08LkNNdSedm0mYj2Bc02d569OruLgrxI4sol2ZlfS4aIaExW5OPO7m8J4zxv545JOrx29s/Drx6a6KlhKqUWutImZhUWNIjWefccdIAIAgCAIA4mQDy5wu4a5e1bGm12TGmfzeIs6Vou+OXH67dcz7NC+cyMnJyXr9mjrgrGW1scHPup/RW2V+ZXmI7tw8Rtb/F4X5q802LZH+pWsz3xpI0S1Wyq4ZPPj0pPnVpj3TqUjPqSkLwmrbfW8dkrP4lZpm3xv3/8AsUt0tHao8qXkscTmVzub3SFd7MbWLO6YF6U01PdieDnlp5vPuwWJPVPcL5b7KTkz7jWVz1T3C+XXspOTPvB3rb+Ge6Rbm+x5yY94O9Dfwyc8mvY85se7A+M/V74OfL17G+o4/dhbDbriPaL8rRvqcflibC627oD5XvXfqvaMU4qR1z2yc+XmO/Ubr8MkRuiIOdI7NW92BxapDdgcI8vZtvhMS2a/rRL1z9am3njWHTdOummsaT1TBPWZWnHJY9P8Hdp/TMLFyoXkRk0V3cjXXk8tYnTX2mdtbIHUAQBAEAcNunsByvPG0eC9WRPLSfA2NzzMRqjT1yvX2H7fN4fOr1n2rxvhfiHJx58uv6pGjyOCmXVuri2OuqeVP+M6SZLxay/Vz4rj369P3a56mSdHRknqdZWfecPfv2Za2GlSsIRh5UbCK2HlS1CEYeVKwhHHlSuWdLBuqdyzLcN1TuH78P5zvmL5H5a7znLXZhhe0W1SZYHsFtUmWB3Eq0g9ji1XMHdhLVcwaxhLVZB7GEq2ZQrshY6deznJXUjRji1WvyMuZ5o5vvJa31a8cMnd6x4uvIezPUsf4IJND6MAgCAIAgDht09gOXs6Wx+g9Jp8+w2NBn03cZ6JDRo0Q0dTREx7zPpu4xcvg9hv42PVrPSsSk96zAkX1WoyOCWJ+rFidlkz8WpSRn1uwG3grXHi22R2ws/IpMIa5vwM3B6Y3Wx7Vn5jeSp/Ol9GOdj2R+uk/wCUfgHSjzSvz9AsjpXvn5B1HSV+Zx3jq7w8w+W/Mq0dXeHnd+Uxs0nLyQ04KxPZIt5Dzw9YXuFvIpPD33He/wAwl5Vc+H/I9mRPUJeSq54J7i2ZDeYS8lWzwYEtuaemSd1V88eZ6CWSJatJBnFqsGsFPHrvi68h7M9Sx/ggU76IAgCAIAgDht09gOXs6Wx+g9Jp8+w2NBn03cbYUGfTdxkWCRbQdpXLLsO0tll2JYOlBrBapB3EPBrBVYPYKeDOKpB7DlUg1gikGcWqQewWqQVxapB7BFIM4tUg7nKpBrBTx674uvIezPUsf4IFO+iAIAgCAIA4bdPYDl7OlsfoPSafPsNjQZ9N3G2FBn03cZFgkW0HaVyy7DtLZZdiWDpQawWqQdxDwawVWD2CngziqQew5VINYIpBnFqkHsFqkFcWqQewRSDOLVIO5yqQawU8eu+LryHsz1LH+CBTvogCAIAgCAOG3T2A5ezpbH6D0mnz7DY0GfTdxthQZ9N3GRYJFtB2lcsuw7S2WXYlg6UGsFqkHcQ8GsFVg9gp4M4qkHsOVSDWCKQZxapB7BapBXFqkHsEUgzi1SDucqkGsFPHrvi68h7M9Sx/ggU76IAgCAIAgDht09gOV0ylbJPJZWRo3q0SrR2xJ6K6mp1jwEzc3y6nSnUENNnG2FBDTdxkWCRbQdpXLLsO0tll2JYOlBrBapB3EPBrBVYPYKeDOKpB7DlUg1gikGcWqQewWqQVxapB7BFIM4tUg7nKpGJKHseErRrHaYhURZZ2meaIiI5xKpHrvgHjvVsfZ9ViNXZXiUK6PEq6NCRrExO6fMcM3wBAEAQBAEAfGcOeF2y8KPB5emRdERMY9Sq98a7tZ1jkdszBTj1vP9t6M/PxcXJOnJJXVLcYFc3NKYk10TpyV8NL2L16zMaSbc8+rP6vu/I5PA8cv/TvSfn/AO6voNm8M8KzTV2qnqtSYjvjWDt3KWcWst/VtCi2Pzd1Vno2LM92upyO6fm2CuWXYVpbLLsSwdKDWC1SDuJTwawVSD2CqQZxVIPYcqsGsEPBnFqkHsFqkFcSqRgZZndEyHQ/WT1Y2x2nzdpzyUfNzGXZ9dNdyPfVORUs6vTFjVcuOrlrzx7DlwbPN9+zvXi44WbDmEx8WhNnXtosV2qsNbO6OTdrPhJnTpnlT1Ermxqzua7OzBToAgCAIAgDht0gK8f7Tx70uecnlTdY0u9jaz4Vp55aG6dTVrj1x3y6fnY8Rjnz58XrP9z934rOwuiUGiOiax4jpscbOtTxbbF7HbQpEdNjVtvJ/mtPpQs/fBSWoaxm+hKbaunfyZ/4xH3DzVQuJ6M67Tad6r7NRu5b9n6+la9HvDyF+Z0Uzqd+V19R9R09H5ajX9b3HPk/k08X+GB8X+6O4W8F9zzxn4YHxP7vcLeH8qTxn4/2O+JH8XuF+T+Tzxd9mB8VeuTnyof6nXswNjp1a9syL8vJ5z7rE1axuiDnlkN8zV70ewWqQawSq5GsEq2RbZjTn3E6vjr6PWHAXJe7ZGz7bGl7LMShndt7NKRrMkG1vQCAIAgCAOG3T2A5ezpGcau1ORYi2LP6rRrB6LkzL3+7wPBvWL1zela3I4D4z89TPTPVr4RO5uf3mLXBn0+z9ji8du/3fdr7uAWUv6N6rY7Zrbunm95K4sa5zZ1+Ar+DebV42NZMR0pEPH2Qjmugs0unjI6+kjL98DypWP2jjypXJCWDSpayQlg8qNyzpaNKncMq3DeYlw/XhzvmL5HE3HPM7MMT2nLTzDA9glqsywO4lqkyPY4tq2YNY4lsWzkW26OuCd1F88evYS3JjzyTu4vnh0Hdkz0RoTu2jPFAbmmd86kr92nMk7PXPF15D2Z6lj/BAp30QBAEAQBAHDbp7AcvZ0tj9B6TT59hsaDPpu42woM+m7jIcSLaDu7+0rll212RjVzvRJ7UUtmRm3qz1At2fTP7JPZGn3HbmJzk17i2bNp/lxHZLfM5ZFJvXuwNgVxuWf8AKRTdWF8VI6++TltNMxhemI6+855qeYjCyi3VPOLLA5y7qk4s+w7tInn0pOPHsNY09Yl1VJx59h7GkW2rZzBXEqsGsFqkGcSqQdzlUg1gp49d8XXkPZnqWP8ABAp30QBAEAQBAHDbp7AcvZ0tj9B6TT59hsaDPpu42woM+m7jIsEi2g7SuWXYdpbLLsSwdKDWC1SDuIeDWCqwewU8GcVSD2HKpBrBFIM4tUg9gtUgri1SD2CKQZxapB3OVSDWCnj13xdeQ9mepY/wQKd9EAQBAEAQBw26ewHL2dLY/Qek0+fYbGgz6buNsKDPpu4yLBItoO0rll2HaWyy7EsHSg1gtUg7iHg1gqsHsFPBnFUg9hyqQawRSDOLVIPYLVIK4tUg9gikGcWqQdzlUg1gp49d8XXkPZnqWP8ABAp30QBAEAQBAHDbp7AcvZ0tj9B6TT59hsaDPpu42woM+m7jIsEi2g7SuWXYdpbLLsSwdKDWC1SDuIeDWCqwewU8GcVSD2HKpBrBFIM4tUg9gtUgri1SD2CKQZxapB3OVSDWCnj13xdeQ9mepY/wQKd9EAQBAEAQBxO4BXW2bwRyaZ+pEXpHTX42nnWfw1P2M+M499/tXkub4Rz8V/pnmn47/wABV1ss6MsrPU0Ss90j2y9kcyy9LOn7/Y6ghpt4yLBItoO0rll2HaWyy7EsHSg1gtUg7iHg1gqsHsFPBnFUg9hyqQawRSDOLVIPYLVIK4tUg9gikGcWqRjrpex4StGsedyVqzvPsiJnpFtUkr7Lg9xRbVzOS1lcYVU/rZWq2aeaqPra+adBeqkj0Zwc2Z9DwcbE5fhPotNdPhOTyeXyFiNdNZ03dZwzZAEAQBAEAQBaAGK/GSyNHRXj+5Yk7NWdia487/unVrrNgY8zrCynotOndJSc+/W9We+C4r2nQS/g1r4lvsZdffA+ef3iW/A9e1azI4NZEbuQ3Y2n3wXz4nDHv4fzenS/5anK2LlLzzRZPory/cupoxzcd9X5/L4Pnz3zb+33/wDDV34lq+NVavpVuv3wW8+b2s/ll+VyTvmz/FCuWY3xMdsaBXelncR2jrgXoeWDvItUg9gikGcVSDWHKpBbGjrjvEUljH4Jm8VWb0VmfuFquZaz08Hs63TweFlvDc0NGPbyP8pjSO8S6nurnGvZtcTix2tb+7rT/vW1r8MyTu4vnh232DxJZDTE5GbVXGsarTU9rTHTHKaViJ9kiXa04fd9Tszid2VVpNq3ZTR/NtZVntWvkwLdVSYkfa7L2PjYq8jGx6aFjoqrVO3dApzgCAIAgCAIAgCAIAgCAIAgCAONAD8vUrb4ie2IkOrlzKxNhVTvqrntRfkd819y3jzfSMD7Gxm349E9tSfI759e5bw8d75n8MM8G8H+jxv+mv5Hfm7/AFUv03D+ifxHH5MYH9Hi/wDRX8g+Zv3rv0/F+mfxHKcGsFZ1jDxonrimv5HPma93Zwcc7Zn8E17Lx18WimOytI/A51p/LPYiulV8VVX0YiPuOO9H7B1yAQBAEAQBAEAQBAEAQBAEAQBAEAQBAEAQBAEAQBAEAQBAEAQBAEAQBAEAQBAEAf/Z;" vertex="1" parent="1">
          <mxGeometry x="330" y="473.6600000000001" width="95.32" height="101" as="geometry" />
        </mxCell>
        <mxCell id="MC8lnm2CJXITioSH9_ZT-15" style="edgeStyle=orthogonalEdgeStyle;rounded=0;orthogonalLoop=1;jettySize=auto;html=1;" edge="1" parent="1" source="MC8lnm2CJXITioSH9_ZT-14" target="MC8lnm2CJXITioSH9_ZT-10">
          <mxGeometry relative="1" as="geometry" />
        </mxCell>
        <mxCell id="MC8lnm2CJXITioSH9_ZT-14" value="" style="shape=image;verticalLabelPosition=bottom;labelBackgroundColor=#ffffff;verticalAlign=top;aspect=fixed;imageAspect=0;image=data:image/png,iVBORw0KGgoAAAANSUhEUgAAAOEAAADhCAMAAAAJbSJIAAAAeFBMVEX///8AAAClpaX8/Pz39/e3t7fZ2dm9vb3T09Pl5eXw8PBfX1/h4eFtbW1qamqbm5vMzMyCgoJ4eHgaGhqKioplZWWrq6sPDw/FxcUwMDDs7OySkpJ/f38UFBQhISFLS0s8PDxPT09XV1c2NjY4ODinp6dEREQpKSmYua94AAAGb0lEQVR4nO2d6XbiMAyFMUsIW8O+lhZoB97/DYc0MIQkkEiWkNzx97uL70kiy9pcq3k8Ho/H4/F4PB6Px+PxwOiug+Gy3V4uw063Ib0YaoL5+25r0qzeomFTellEBNHePGA1Wjr/MDvT7SN5F2ZD6TXaMPwskffD9o/0OrG0V1X0/bBx8ZMcnirri4mk1wul2wPpO/MRSq8ZxByqL2YsverqNMAPMGHSl155RfplG8RjWtJrr0QLrc+48aZGNgKNOUivv5SRnUBjdsr9uLGtwPO20ZUW8QwCgWeTqtjBsX5FEz7Uvqiofb6IT2klDxhSCdS6aazpBBqj8kD1QanQBNJy8hBZmStbaT05CD/ChHdpRVkW1AqNsvPihlyg+ZDWdEeHXqAxdWlVaWYcCo0i763PItBspHXdeONRaNT4p6TeTBo1ns2US6Eac8ol0BglOY0ln8KBtLaEAZ9CI60tgVGgjteU3OdOM5JWF8NmSWNUWNMdp0KjILTYZBVoltL6arWAV6EC39QqEVPOTFofy9k3zUpaH+9+HyN/vtgzK5Q3phNmhR1pgaw+W4x8yI1bofyGyK2wLS2QXaF8eYZXaMvvf0vlLQ19SuYe+d3ii1mh/I6PrNKrjLzXRlJC8wR5z7vOK/BLWh9rPDhGQUyYJTl6Q0P9N+92oSEkzGtM5Q0Ns6k5SquLYUpxJygIJtZ44xg6ir8YExdKar9CPoVTaW0XYB1OEOTd7oQ/XALV1Ao3uBTKn36vMNmak7SuG0w5RPkQzQ2WBJSCtFMKDoUanO4bDHnSnrSmDJW6tkHIB2juIa9PnEsrykHWEpSgsQ+R9iSsqAL6BqV7quPUlIXwU5RPOBVDVjykIcBWDFHsVF1DUIo2hUAFZVBPIJD4Jq2hBOt6Wp3to2kszY1eI3NjbbMvat0mMqCbhBauDDfB+qgKMmkZ+q1o8HncnVa52HvniBCYC1q0j6fv47E3nYcS+ZnMFLbcWQf8GN+zKoL0IK3Tiye7rTe51vRV1ldugGI3h+wX2MhX5g5eFtYID4WLzDV/NCsHGXu5o0Sx5zB5ybG4X6wv/v+54p5mVCUvNc5Z0ObDrtsF/3by9LmM899KWDKJYNbO/87TsNaRN5cRliXti+Lw4aPRkN/TZcFRfv3gp//B6fZUmAE1Kw4/dNqbt1Q47ms2agXFP1khaX5gM6vVyp+eW4Nm8+ny+pXK5CZMkcaqztgn/kupan0Xa0Jd/wC0jgxwGiFVHQxPEVahB9fYgA1625KHG8GD5g4gD6QDTkHuiAViju6TqOKDbLQwWQ/aYEAXsYKYY1R64uu2sGNDSN2bPXIRZyajom39QhBhjllXCA2qbbHFbjwPMsavcfYB9pZ/lq7oDfuOZjj1xqNNVN9MxwOi7miyowZ3sToeol2Ruc7ZBqLwOHdHhQ0kWTjmZm07SFLF3G0/dhA0Dal+hMbs7RXylVbSYP0lKjakCdbmdC+toBTLPZG5I4YCy8AU63gdGhZ2CnVvFQlWGwZjGT4dVqUb79Krr4SNQvw9Dq/E4jVlnpBEhUXfieVNDq/CoqafvvCXB3SQna1ThBp01E29T3oFXcThgENzAauQd14gJcgPkXleICXID9EJly0B6bgxz4OgZIdTyD1NjxJcZp971hwluGiN9KohoEyNI253Asr5Vh4ovQcV+2YeTEoMRqHenFoRmNKMb+lFg0BUiDtzdEpA9H0TpbZfBeJSGoe80hjEdkHSpPU6EJ3fDvndMYjKE3cO+D8grhjgnhZIDfx04daGj9ny3QnSJMBDNS6dDmPgJ0TpFUOBtwxJrxgKeOKSY24pwjF1KFiaAI5jsN0WxwX4FjoHykzuARed/H6FrDM7OQDPAfUK1QE+AnuF6vj9CsHf4e/fLRwLJmL6Z6RXDAU+zdWFytI08BPww9EJSoHHaRyLJk7AAv+DmLdj2wWmYj83gkY1mGIMN2q8ryAE8t7VTA2u7Et61RBwxewOFWMgR3875Jpiy6BLBiDpAd365EzcG3+HAvEEay5s2p330ouvhE2PpRPGxu6SCAeqamyvhFJfg2k/ElT5KYpirrJq/zQ3jhJFR2+fJdmAGqV9CSfCscNLjZE34nv11BXyDcin7jXrmp5jfqorCeG7jkKpWYtxanJQH4iOc9n2NkP+odCNTtie11/OvDXsa7shyePxeDwej8fj8Vz4C1b2gkr4izi5AAAAAElFTkSuQmCC;" vertex="1" parent="1">
          <mxGeometry x="593.64" y="260" width="95" height="112" as="geometry" />
        </mxCell>
      </root>
    </mxGraphModel>
  </diagram>
</mxfile>
